<?xml version="1.0" encoding="UTF-8"?>
<svg width="144px" height="120px" viewBox="0 0 144 120" version="1.1" xmlns="http://www.w3.org/2000/svg" xmlns:xlink="http://www.w3.org/1999/xlink">
    <!-- Generator: Sketch 43.2 (39069) - http://www.bohemiancoding.com/sketch -->
    <title>Group 2</title>
    <desc>Created with Sketch.</desc>
    <defs>
        <path d="M0,16.1631229 C0,7.2364766 7.23848006,0 16.1656147,0 L45.7465127,0 C54.6745351,0 61.9121273,7.23451388 61.9121273,16.1631229 L61.9121273,32.3262458 L0,32.3262458 L0,16.1631229 Z" id="path-1"></path>
        <path d="M0,16.1631229 C0,7.2364766 7.23848006,0 16.1656147,0 L45.7465127,0 C54.6745351,0 61.9121273,7.23451388 61.9121273,16.1631229 L61.9121273,32.3262458 L0,32.3262458 L0,16.1631229 Z" id="path-2"></path>
        <path d="M0,16.1631229 C0,7.2364766 7.23848006,0 16.1656147,0 L45.7465127,0 C54.6745351,0 61.9121273,7.23451388 61.9121273,16.1631229 L61.9121273,32.3262458 L0,32.3262458 L0,16.1631229 Z" id="path-3"></path>
        <path d="M0,16.1631229 C0,7.2364766 7.23848006,0 16.1656147,0 L45.7465127,0 C54.6745351,0 61.9121273,7.23451388 61.9121273,16.1631229 L61.9121273,32.3262458 L0,32.3262458 L0,16.1631229 Z" id="path-4"></path>
        <path d="M0,16.1631229 C0,7.2364766 7.23848006,0 16.1656147,0 L45.7465127,0 C54.6745351,0 61.9121273,7.23451388 61.9121273,16.1631229 L61.9121273,32.3262458 L0,32.3262458 L0,16.1631229 Z" id="path-5"></path>
        <path d="M0,16.1631229 C0,7.2364766 7.23848006,0 16.1656147,0 L45.7465127,0 C54.6745351,0 61.9121273,7.23451388 61.9121273,16.1631229 L61.9121273,32.3262458 L0,32.3262458 L0,16.1631229 Z" id="path-6"></path>
        <path d="M0,44.3590176 C0,35.4323713 7.23848006,28.1958947 16.1656147,28.1958947 L45.7465127,28.1958947 C54.6745351,28.1958947 61.9121273,35.4304086 61.9121273,44.3590176 L61.9121273,60.5221405 L0,60.5221405 L0,44.3590176 Z" id="path-7"></path>
        <path d="M0,44.3590176 C0,35.4323713 7.23848006,28.1958947 16.1656147,28.1958947 L45.7465127,28.1958947 C54.6745351,28.1958947 61.9121273,35.4304086 61.9121273,44.3590176 L61.9121273,60.5221405 L0,60.5221405 L0,44.3590176 Z" id="path-8"></path>
        <path d="M0,44.3590176 C0,35.4323713 7.23848006,28.1958947 16.1656147,28.1958947 L45.7465127,28.1958947 C54.6745351,28.1958947 61.9121273,35.4304086 61.9121273,44.3590176 L61.9121273,60.5221405 L0,60.5221405 L0,44.3590176 Z" id="path-9"></path>
        <path d="M0,44.3590176 C0,35.4323713 7.23848006,28.1958947 16.1656147,28.1958947 L45.7465127,28.1958947 C54.6745351,28.1958947 61.9121273,35.4304086 61.9121273,44.3590176 L61.9121273,60.5221405 L0,60.5221405 L0,44.3590176 Z" id="path-10"></path>
        <path d="M81.4829268,75.8723859 C81.4829268,66.9457396 88.7214069,59.709263 97.6485415,59.709263 L127.229439,59.709263 C136.157462,59.709263 143.395054,66.9437769 143.395054,75.8723859 L143.395054,92.0355088 L81.4829268,92.0355088 L81.4829268,75.8723859 Z" id="path-11"></path>
        <path d="M0,44.3590176 C0,35.4323713 7.23848006,28.1958947 16.1656147,28.1958947 L45.7465127,28.1958947 C54.6745351,28.1958947 61.9121273,35.4304086 61.9121273,44.3590176 L61.9121273,60.5221405 L0,60.5221405 L0,44.3590176 Z" id="path-12"></path>
        <path d="M0,44.3590176 C0,35.4323713 7.23848006,28.1958947 16.1656147,28.1958947 L45.7465127,28.1958947 C54.6745351,28.1958947 61.9121273,35.4304086 61.9121273,44.3590176 L61.9121273,60.5221405 L0,60.5221405 L0,44.3590176 Z" id="path-13"></path>
        <path d="M0,16.1631229 C0,7.2364766 7.23848006,0 16.1656147,0 L45.7465127,0 C54.6745351,0 61.9121273,7.23451388 61.9121273,16.1631229 L61.9121273,32.3262458 L0,32.3262458 L0,16.1631229 Z" id="path-14"></path>
        <path d="M0,13.4692691 C0,6.03039717 6.0208586,0 13.4721742,0 L48.4399531,0 C55.8804295,0 61.9121273,6.02876157 61.9121273,13.4692691 L61.9121273,26.9385381 L0,26.9385381 L0,13.4692691 Z" id="path-15"></path>
    </defs>
    <g id="Page-1" stroke="none" stroke-width="1" fill="none" fill-rule="evenodd">
        <g id="Desktop-HD" transform="translate(-648.000000, -1654.000000)">
            <g id="Group-17" transform="translate(221.000000, 1529.000000)">
                <g id="Group-25">
                    <g id="Group-24" transform="translate(0.000000, 90.000000)">
                        <g id="Group-2" transform="translate(427.000000, 36.000000)">
                            <g id="Group-7" transform="translate(7.024390, 79.101975)">
                                <g id="Group-8">
                                    <g id="Rectangle-3">
                                        <use fill="#FFFFFF" fill-rule="evenodd" xlink:href="#path-1"></use>
                                        <path stroke="#D9D9DB" stroke-width="2" d="M60.9121273,31.3262458 L1,31.3262458 L1,16.1631229 C1,7.78911093 7.79041518,1 16.1656147,1 L45.7465127,1 C54.1229817,1 60.9121273,7.78752979 60.9121273,16.1631229 L60.9121273,31.3262458 Z"></path>
                                    </g>
                                </g>
                            </g>
                            <g id="Group-7" transform="translate(7.024390, 79.101975)">
                                <g id="Group-8">
                                    <g id="Rectangle-3">
                                        <use fill="#FFFFFF" fill-rule="evenodd" xlink:href="#path-2"></use>
                                        <path stroke="#D9D9DB" stroke-width="2" d="M60.9121273,31.3262458 L1,31.3262458 L1,16.1631229 C1,7.78911093 7.79041518,1 16.1656147,1 L45.7465127,1 C54.1229817,1 60.9121273,7.78752979 60.9121273,16.1631229 L60.9121273,31.3262458 Z"></path>
                                    </g>
                                </g>
                            </g>
                            <g id="Group-7" transform="translate(7.024390, 79.101975)">
                                <g id="Group-8">
                                    <g id="Rectangle-3">
                                        <use fill="#FFFFFF" fill-rule="evenodd" xlink:href="#path-3"></use>
                                        <path stroke="#D9D9DB" stroke-width="2" d="M60.9121273,31.3262458 L1,31.3262458 L1,16.1631229 C1,7.78911093 7.79041518,1 16.1656147,1 L45.7465127,1 C54.1229817,1 60.9121273,7.78752979 60.9121273,16.1631229 L60.9121273,31.3262458 Z"></path>
                                    </g>
                                </g>
                            </g>
                            <g id="Group-7" transform="translate(7.024390, 79.101975)">
                                <g id="Group-8">
                                    <g id="Rectangle-3">
                                        <use fill="#FFFFFF" fill-rule="evenodd" xlink:href="#path-4"></use>
                                        <path stroke="#D9D9DB" stroke-width="2" d="M60.9121273,31.3262458 L1,31.3262458 L1,16.1631229 C1,7.78911093 7.79041518,1 16.1656147,1 L45.7465127,1 C54.1229817,1 60.9121273,7.78752979 60.9121273,16.1631229 L60.9121273,31.3262458 Z"></path>
                                    </g>
                                </g>
                            </g>
                            <g id="Group-7" transform="translate(7.024390, 79.101975)">
                                <g id="Group-8">
                                    <g id="Rectangle-3">
                                        <use fill="#FFFFFF" fill-rule="evenodd" xlink:href="#path-5"></use>
                                        <path stroke="#D9D9DB" stroke-width="2" d="M60.9121273,31.3262458 L1,31.3262458 L1,16.1631229 C1,7.78911093 7.79041518,1 16.1656147,1 L45.7465127,1 C54.1229817,1 60.9121273,7.78752979 60.9121273,16.1631229 L60.9121273,31.3262458 Z"></path>
                                    </g>
                                </g>
                            </g>
                            <g id="Group-7" transform="translate(7.024390, 79.101975)">
                                <g id="Group-8">
                                    <g id="Rectangle-3">
                                        <use fill="#FFFFFF" fill-rule="evenodd" xlink:href="#path-6"></use>
                                        <path stroke="#D9D9DB" stroke-width="2" d="M60.9121273,31.3262458 L1,31.3262458 L1,16.1631229 C1,7.78911093 7.79041518,1 16.1656147,1 L45.7465127,1 C54.1229817,1 60.9121273,7.78752979 60.9121273,16.1631229 L60.9121273,31.3262458 Z"></path>
                                    </g>
                                </g>
                            </g>
                            <path d="M74.8642745,87.8570002 L82.7679503,82.4692926" id="Path-9" stroke="#66A5F6" stroke-linecap="round" stroke-linejoin="round"></path>
                            <path d="M73.5469951,91.8977809 L88.0370675,82.4692926" id="Path-9" stroke="#66A5F6" stroke-linecap="round" stroke-linejoin="round"></path>
                            <path d="M73.5469951,95.9385617 L93.3061847,82.4692926" id="Path-9" stroke="#66A5F6" stroke-linecap="round" stroke-linejoin="round"></path>
                            <path d="M73.5469951,99.9793424 L98.5753019,82.4692926" id="Path-9" stroke="#66A5F6" stroke-linecap="round" stroke-linejoin="round"></path>
                            <path d="M73.5469951,104.020123 L103.844419,82.4692926" id="Path-9" stroke="#66A5F6" stroke-linecap="round" stroke-linejoin="round"></path>
                            <path d="M77.4988331,105.36705 L109.113536,82.4692926" id="Path-9" stroke="#66A5F6" stroke-linecap="round" stroke-linejoin="round"></path>
                            <path d="M82.7679503,105.36705 L114.382654,82.4692926" id="Path-9" stroke="#66A5F6" stroke-linecap="round" stroke-linejoin="round"></path>
                            <path d="M88.0370675,105.36705 L118.334492,83.8162195" id="Path-9" stroke="#66A5F6" stroke-linecap="round" stroke-linejoin="round"></path>
                            <path d="M93.3061847,105.36705 L122.286329,85.1631464" id="Path-9" stroke="#66A5F6" stroke-linecap="round" stroke-linejoin="round"></path>
                            <path d="M98.5753019,105.36705 L123.603609,87.8570002" id="Path-9" stroke="#66A5F6" stroke-linecap="round" stroke-linejoin="round"></path>
                            <path d="M103.844419,105.36705 L124.920888,90.550854" id="Path-9" stroke="#66A5F6" stroke-linecap="round" stroke-linejoin="round"></path>
                            <path d="M109.113536,105.36705 L126.197018,93.4384212" id="Path-9" stroke="#66A5F6" stroke-linecap="round" stroke-linejoin="round"></path>
                            <path d="M113.724014,105.8468 L126.238167,97.2854886" id="Path-9" stroke="#66A5F6" stroke-linecap="round" stroke-linejoin="round"></path>
                            <path d="M118.993131,105.8468 L126.238167,101.326269" id="Path-9" stroke="#66A5F6" stroke-linecap="round" stroke-linejoin="round"></path>
                            <path d="M124.262248,105.8468 L126.589379,104.39362" id="Path-9" stroke="#66A5F6" stroke-linecap="round" stroke-linejoin="round"></path>
                            <g id="Group-36" transform="translate(70.243902, 6.464237)">
                                <g id="Group-7" transform="translate(0.000000, 0.628678)">
                                    <g id="Group-8">
                                        <g id="Group-35">
                                            <ellipse id="Oval-3" stroke="#D9D9DB" stroke-width="2" fill="#F3F3F6" cx="31.2585366" cy="14.0058478" rx="13.697561" ry="14.0058478"></ellipse>
                                            <g id="Rectangle-3">
                                                <use fill="#FFFFFF" fill-rule="evenodd" xlink:href="#path-7"></use>
                                                <path stroke="#D9D9DB" stroke-width="2" d="M60.9121273,59.5221405 L1,59.5221405 L1,44.3590176 C1,35.9850057 7.79041518,29.1958947 16.1656147,29.1958947 L45.7465127,29.1958947 C54.1229817,29.1958947 60.9121273,35.9834245 60.9121273,44.3590176 L60.9121273,59.5221405 Z"></path>
                                            </g>
                                        </g>
                                    </g>
                                </g>
                                <g id="Group-9" transform="translate(3.951838, 32.770725)" stroke="#F87C8B" stroke-linecap="round" stroke-linejoin="round">
                                    <path d="M1.97591896,6.15579995 L9.87959479,0.768092324" id="Path-9"></path>
                                    <g id="Group-12">
                                        <path d="M0.658639653,10.1965807 L15.148712,0.768092324" id="Path-9"></path>
                                        <path d="M0.658639653,14.2373614 L20.4178292,0.768092324" id="Path-9"></path>
                                        <path d="M0.658639653,18.2781421 L25.6869464,0.768092324" id="Path-9"></path>
                                        <path d="M0.658639653,22.3189228 L30.9560637,0.768092324" id="Path-9"></path>
                                        <path d="M4.61047757,23.6658497 L36.2251809,0.768092324" id="Path-9"></path>
                                        <path d="M9.87959479,23.6658497 L41.4942981,0.768092324" id="Path-9"></path>
                                        <path d="M15.148712,23.6658497 L45.446136,2.11501923" id="Path-9"></path>
                                        <path d="M20.4178292,23.6658497 L49.3979739,3.46194614" id="Path-9"></path>
                                        <path d="M25.6869464,23.6658497 L50.7152532,6.15579995" id="Path-9"></path>
                                        <path d="M30.9560637,23.6658497 L52.0325325,8.84965376" id="Path-9"></path>
                                        <path d="M36.2251809,23.6658497 L53.3086627,11.7372209" id="Path-9"></path>
                                        <path d="M40.8356585,24.1455999 L53.3498119,15.5842883" id="Path-9"></path>
                                        <path d="M46.1047757,24.1455999 L53.3498119,19.625069" id="Path-9"></path>
                                        <path d="M51.3738929,24.1455999 L53.7010232,22.6924195" id="Path-9"></path>
                                    </g>
                                </g>
                            </g>
                            <g id="Group-36" transform="translate(7.726829, 6.464237)">
                                <g id="Group-7" transform="translate(0.000000, 0.628678)">
                                    <g id="Group-8">
                                        <g id="Group-35">
                                            <ellipse id="Oval-3" stroke="#D9D9DB" stroke-width="2" fill="#F3F3F6" cx="31.2585366" cy="14.0058478" rx="13.697561" ry="14.0058478"></ellipse>
                                            <g id="Rectangle-3">
                                                <use fill="#FFFFFF" fill-rule="evenodd" xlink:href="#path-8"></use>
                                                <path stroke="#D9D9DB" stroke-width="2" d="M60.9121273,59.5221405 L1,59.5221405 L1,44.3590176 C1,35.9850057 7.79041518,29.1958947 16.1656147,29.1958947 L45.7465127,29.1958947 C54.1229817,29.1958947 60.9121273,35.9834245 60.9121273,44.3590176 L60.9121273,59.5221405 Z"></path>
                                            </g>
                                        </g>
                                    </g>
                                </g>
                                <g id="Group-9" transform="translate(3.951838, 32.770725)" stroke="#F87C8B" stroke-linecap="round" stroke-linejoin="round">
                                    <path d="M1.97591896,6.15579995 L9.87959479,0.768092324" id="Path-9"></path>
                                    <g id="Group-12">
                                        <path d="M0.658639653,10.1965807 L15.148712,0.768092324" id="Path-9"></path>
                                        <path d="M0.658639653,14.2373614 L20.4178292,0.768092324" id="Path-9"></path>
                                        <path d="M0.658639653,18.2781421 L25.6869464,0.768092324" id="Path-9"></path>
                                        <path d="M0.658639653,22.3189228 L30.9560637,0.768092324" id="Path-9"></path>
                                        <path d="M4.61047757,23.6658497 L36.2251809,0.768092324" id="Path-9"></path>
                                        <path d="M9.87959479,23.6658497 L41.4942981,0.768092324" id="Path-9"></path>
                                        <path d="M15.148712,23.6658497 L45.446136,2.11501923" id="Path-9"></path>
                                        <path d="M20.4178292,23.6658497 L49.3979739,3.46194614" id="Path-9"></path>
                                        <path d="M25.6869464,23.6658497 L50.7152532,6.15579995" id="Path-9"></path>
                                        <path d="M30.9560637,23.6658497 L52.0325325,8.84965376" id="Path-9"></path>
                                        <path d="M36.2251809,23.6658497 L53.3086627,11.7372209" id="Path-9"></path>
                                        <path d="M40.8356585,24.1455999 L53.3498119,15.5842883" id="Path-9"></path>
                                        <path d="M46.1047757,24.1455999 L53.3498119,19.625069" id="Path-9"></path>
                                        <path d="M51.3738929,24.1455999 L53.7010232,22.6924195" id="Path-9"></path>
                                    </g>
                                </g>
                            </g>
                            <g id="Group-36" transform="translate(38.634146, 0.000000)">
                                <g id="Group-7" transform="translate(0.000000, 0.628678)">
                                    <g id="Group-8">
                                        <g id="Group-35">
                                            <ellipse id="Oval-3" stroke="#D9D9DB" stroke-width="2" fill="#F3F3F6" cx="31.2585366" cy="14.0058478" rx="13.697561" ry="14.0058478"></ellipse>
                                            <g id="Rectangle-3">
                                                <use fill="#FFFFFF" fill-rule="evenodd" xlink:href="#path-9"></use>
                                                <path stroke="#D9D9DB" stroke-width="2" d="M60.9121273,59.5221405 L1,59.5221405 L1,44.3590176 C1,35.9850057 7.79041518,29.1958947 16.1656147,29.1958947 L45.7465127,29.1958947 C54.1229817,29.1958947 60.9121273,35.9834245 60.9121273,44.3590176 L60.9121273,59.5221405 Z"></path>
                                            </g>
                                        </g>
                                    </g>
                                </g>
                                <g id="Group-9" transform="translate(3.951838, 32.770725)" stroke="#F87C8B" stroke-linecap="round" stroke-linejoin="round">
                                    <path d="M1.97591896,6.15579995 L9.87959479,0.768092324" id="Path-9"></path>
                                    <g id="Group-12">
                                        <path d="M0.658639653,10.1965807 L15.148712,0.768092324" id="Path-9"></path>
                                        <path d="M0.658639653,14.2373614 L20.4178292,0.768092324" id="Path-9"></path>
                                        <path d="M0.658639653,18.2781421 L25.6869464,0.768092324" id="Path-9"></path>
                                        <path d="M0.658639653,22.3189228 L30.9560637,0.768092324" id="Path-9"></path>
                                        <path d="M4.61047757,23.6658497 L36.2251809,0.768092324" id="Path-9"></path>
                                        <path d="M9.87959479,23.6658497 L41.4942981,0.768092324" id="Path-9"></path>
                                        <path d="M15.148712,23.6658497 L45.446136,2.11501923" id="Path-9"></path>
                                        <path d="M20.4178292,23.6658497 L49.3979739,3.46194614" id="Path-9"></path>
                                        <path d="M25.6869464,23.6658497 L50.7152532,6.15579995" id="Path-9"></path>
                                        <path d="M30.9560637,23.6658497 L52.0325325,8.84965376" id="Path-9"></path>
                                        <path d="M36.2251809,23.6658497 L53.3086627,11.7372209" id="Path-9"></path>
                                        <path d="M40.8356585,24.1455999 L53.3498119,15.5842883" id="Path-9"></path>
                                        <path d="M46.1047757,24.1455999 L53.3498119,19.625069" id="Path-9"></path>
                                        <path d="M51.3738929,24.1455999 L53.7010232,22.6924195" id="Path-9"></path>
                                    </g>
                                </g>
                            </g>
                            <g id="Group-36" transform="translate(0.000000, 30.884690)">
                                <g id="Group-7" transform="translate(0.000000, 0.628678)">
                                    <g id="Group-8">
                                        <g id="Group-35">
                                            <ellipse id="Oval-3" stroke="#D9D9DB" stroke-width="2" fill="#66A5F6" cx="31.2585366" cy="14.0058478" rx="13.697561" ry="14.0058478"></ellipse>
                                            <g id="Rectangle-3">
                                                <use fill="#FFFFFF" fill-rule="evenodd" xlink:href="#path-10"></use>
                                                <path stroke="#D9D9DB" stroke-width="2" d="M60.9121273,59.5221405 L1,59.5221405 L1,44.3590176 C1,35.9850057 7.79041518,29.1958947 16.1656147,29.1958947 L45.7465127,29.1958947 C54.1229817,29.1958947 60.9121273,35.9834245 60.9121273,44.3590176 L60.9121273,59.5221405 Z"></path>
                                            </g>
                                        </g>
                                    </g>
                                </g>
                                <g id="Group-9" transform="translate(3.951838, 32.770725)" stroke="#F87C8B" stroke-linecap="round" stroke-linejoin="round">
                                    <path d="M1.97591896,6.15579995 L9.87959479,0.768092324" id="Path-9"></path>
                                    <g id="Group-12">
                                        <path d="M0.658639653,10.1965807 L15.148712,0.768092324" id="Path-9"></path>
                                        <path d="M0.658639653,14.2373614 L20.4178292,0.768092324" id="Path-9"></path>
                                        <path d="M0.658639653,18.2781421 L25.6869464,0.768092324" id="Path-9"></path>
                                        <path d="M0.658639653,22.3189228 L30.9560637,0.768092324" id="Path-9"></path>
                                        <path d="M4.61047757,23.6658497 L36.2251809,0.768092324" id="Path-9"></path>
                                        <path d="M9.87959479,23.6658497 L41.4942981,0.768092324" id="Path-9"></path>
                                        <path d="M15.148712,23.6658497 L45.446136,2.11501923" id="Path-9"></path>
                                        <path d="M20.4178292,23.6658497 L49.3979739,3.46194614" id="Path-9"></path>
                                        <path d="M25.6869464,23.6658497 L50.7152532,6.15579995" id="Path-9"></path>
                                        <path d="M30.9560637,23.6658497 L52.0325325,8.84965376" id="Path-9"></path>
                                        <path d="M36.2251809,23.6658497 L53.3086627,11.7372209" id="Path-9"></path>
                                        <path d="M40.8356585,24.1455999 L53.3498119,15.5842883" id="Path-9"></path>
                                        <path d="M46.1047757,24.1455999 L53.3498119,19.625069" id="Path-9"></path>
                                        <path d="M51.3738929,24.1455999 L53.7010232,22.6924195" id="Path-9"></path>
                                    </g>
                                </g>
                            </g>
                            <ellipse id="Oval-3" stroke="#D9D9DB" stroke-width="2" fill="#FFD049" cx="112.741463" cy="45.5192161" rx="13.697561" ry="14.0058478"></ellipse>
                            <g id="Rectangle-3">
                                <use fill="#FFFFFF" fill-rule="evenodd" xlink:href="#path-11"></use>
                                <path stroke="#D9D9DB" stroke-width="2" d="M142.395054,91.0355088 L82.4829268,91.0355088 L82.4829268,75.8723859 C82.4829268,67.498374 89.273342,60.709263 97.6485415,60.709263 L127.229439,60.709263 C135.605909,60.709263 142.395054,67.4967928 142.395054,75.8723859 L142.395054,91.0355088 Z"></path>
                            </g>
                            <g id="Group-9" transform="translate(85.434765, 63.655415)" stroke="#F87C8B" stroke-linecap="round" stroke-linejoin="round">
                                <path d="M1.97591896,6.15579995 L9.87959479,0.768092324" id="Path-9"></path>
                                <g id="Group-12">
                                    <path d="M0.658639653,10.1965807 L15.148712,0.768092324" id="Path-9"></path>
                                    <path d="M0.658639653,14.2373614 L20.4178292,0.768092324" id="Path-9"></path>
                                    <path d="M0.658639653,18.2781421 L25.6869464,0.768092324" id="Path-9"></path>
                                    <path d="M0.658639653,22.3189228 L30.9560637,0.768092324" id="Path-9"></path>
                                    <path d="M4.61047757,23.6658497 L36.2251809,0.768092324" id="Path-9"></path>
                                    <path d="M9.87959479,23.6658497 L41.4942981,0.768092324" id="Path-9"></path>
                                    <path d="M15.148712,23.6658497 L45.446136,2.11501923" id="Path-9"></path>
                                    <path d="M20.4178292,23.6658497 L49.3979739,3.46194614" id="Path-9"></path>
                                    <path d="M25.6869464,23.6658497 L50.7152532,6.15579995" id="Path-9"></path>
                                    <path d="M30.9560637,23.6658497 L52.0325325,8.84965376" id="Path-9"></path>
                                    <path d="M36.2251809,23.6658497 L53.3086627,11.7372209" id="Path-9"></path>
                                    <path d="M40.8356585,24.1455999 L53.3498119,15.5842883" id="Path-9"></path>
                                    <path d="M46.1047757,24.1455999 L53.3498119,19.625069" id="Path-9"></path>
                                    <path d="M51.3738929,24.1455999 L53.7010232,22.6924195" id="Path-9"></path>
                                </g>
                            </g>
                            <g id="Group-13" transform="translate(38.634146, 28.729944)">
                                <g id="Group-36">
                                    <g id="Group-7" transform="translate(0.000000, 0.628678)">
                                        <g id="Group-8">
                                            <g id="Group-35">
                                                <ellipse id="Oval-3" stroke="#D9D9DB" stroke-width="2" fill="#F87C8B" cx="31.2585366" cy="14.0058478" rx="13.697561" ry="14.0058478"></ellipse>
                                                <g id="Rectangle-3">
                                                    <use fill="#FFFFFF" fill-rule="evenodd" xlink:href="#path-12"></use>
                                                    <path stroke="#D9D9DB" stroke-width="2" d="M60.9121273,59.5221405 L1,59.5221405 L1,44.3590176 C1,35.9850057 7.79041518,29.1958947 16.1656147,29.1958947 L45.7465127,29.1958947 C54.1229817,29.1958947 60.9121273,35.9834245 60.9121273,44.3590176 L60.9121273,59.5221405 Z"></path>
                                                </g>
                                            </g>
                                        </g>
                                    </g>
                                    <g id="Group-9" transform="translate(3.951838, 32.770725)" stroke="#F87C8B" stroke-linecap="round" stroke-linejoin="round">
                                        <path d="M1.97591896,6.15579995 L9.87959479,0.768092324" id="Path-9"></path>
                                        <g id="Group-12">
                                            <path d="M0.658639653,10.1965807 L15.148712,0.768092324" id="Path-9"></path>
                                            <path d="M0.658639653,14.2373614 L20.4178292,0.768092324" id="Path-9"></path>
                                            <path d="M0.658639653,18.2781421 L25.6869464,0.768092324" id="Path-9"></path>
                                            <path d="M0.658639653,22.3189228 L30.9560637,0.768092324" id="Path-9"></path>
                                            <path d="M4.61047757,23.6658497 L36.2251809,0.768092324" id="Path-9"></path>
                                            <path d="M9.87959479,23.6658497 L41.4942981,0.768092324" id="Path-9"></path>
                                            <path d="M15.148712,23.6658497 L45.446136,2.11501923" id="Path-9"></path>
                                            <path d="M20.4178292,23.6658497 L49.3979739,3.46194614" id="Path-9"></path>
                                            <path d="M25.6869464,23.6658497 L50.7152532,6.15579995" id="Path-9"></path>
                                            <path d="M30.9560637,23.6658497 L52.0325325,8.84965376" id="Path-9"></path>
                                            <path d="M36.2251809,23.6658497 L53.3086627,11.7372209" id="Path-9"></path>
                                            <path d="M40.8356585,24.1455999 L53.3498119,15.5842883" id="Path-9"></path>
                                            <path d="M46.1047757,24.1455999 L53.3498119,19.625069" id="Path-9"></path>
                                            <path d="M51.3738929,24.1455999 L53.7010232,22.6924195" id="Path-9"></path>
                                        </g>
                                    </g>
                                </g>
                                <ellipse id="Oval-4" stroke="#D9D9DB" fill="#77ADF2" cx="20.3707317" cy="45.9679107" rx="3.51219512" ry="3.59124302"></ellipse>
                                <ellipse id="Oval-4" stroke="#D9D9DB" fill="#FFD049" cx="26.3414634" cy="42.7357919" rx="2.45853659" ry="2.51387011"></ellipse>
                            </g>
                            <g id="Group-36" transform="translate(7.024390, 50.277402)">
                                <g id="Group-7" transform="translate(0.000000, 0.628678)">
                                    <g id="Group-8">
                                        <g id="Group-35">
                                            <ellipse id="Oval-3" stroke="#D9D9DB" stroke-width="2" fill="#F87C8B" cx="31.2585366" cy="14.0058478" rx="13.697561" ry="14.0058478"></ellipse>
                                            <g id="Rectangle-3">
                                                <use fill="#FFFFFF" fill-rule="evenodd" xlink:href="#path-13"></use>
                                                <path stroke="#D9D9DB" stroke-width="2" d="M60.9121273,59.5221405 L1,59.5221405 L1,44.3590176 C1,35.9850057 7.79041518,29.1958947 16.1656147,29.1958947 L45.7465127,29.1958947 C54.1229817,29.1958947 60.9121273,35.9834245 60.9121273,44.3590176 L60.9121273,59.5221405 Z"></path>
                                            </g>
                                        </g>
                                    </g>
                                </g>
                                <g id="Group-9" transform="translate(3.951838, 32.770725)" stroke="#F87C8B" stroke-linecap="round" stroke-linejoin="round">
                                    <path d="M1.97591896,6.15579995 L9.87959479,0.768092324" id="Path-9"></path>
                                    <g id="Group-12">
                                        <path d="M0.658639653,10.1965807 L15.148712,0.768092324" id="Path-9"></path>
                                        <path d="M0.658639653,14.2373614 L20.4178292,0.768092324" id="Path-9"></path>
                                        <path d="M0.658639653,18.2781421 L25.6869464,0.768092324" id="Path-9"></path>
                                        <path d="M0.658639653,22.3189228 L30.9560637,0.768092324" id="Path-9"></path>
                                        <path d="M4.61047757,23.6658497 L36.2251809,0.768092324" id="Path-9"></path>
                                        <path d="M9.87959479,23.6658497 L41.4942981,0.768092324" id="Path-9"></path>
                                        <path d="M15.148712,23.6658497 L45.446136,2.11501923" id="Path-9"></path>
                                        <path d="M20.4178292,23.6658497 L49.3979739,3.46194614" id="Path-9"></path>
                                        <path d="M25.6869464,23.6658497 L50.7152532,6.15579995" id="Path-9"></path>
                                        <path d="M30.9560637,23.6658497 L52.0325325,8.84965376" id="Path-9"></path>
                                        <path d="M36.2251809,23.6658497 L53.3086627,11.7372209" id="Path-9"></path>
                                        <path d="M40.8356585,24.1455999 L53.3498119,15.5842883" id="Path-9"></path>
                                        <path d="M46.1047757,24.1455999 L53.3498119,19.625069" id="Path-9"></path>
                                        <path d="M51.3738929,24.1455999 L53.7010232,22.6924195" id="Path-9"></path>
                                    </g>
                                </g>
                            </g>
                            <ellipse id="Oval-4" stroke="#D9D9DB" fill="#77ADF2" cx="27.395122" cy="96.245313" rx="3.51219512" ry="3.59124302"></ellipse>
                            <ellipse id="Oval-4" stroke="#D9D9DB" fill="#FFD049" cx="33.3658537" cy="93.0131942" rx="2.45853659" ry="2.51387011"></ellipse>
                            <g id="Group-15" transform="translate(68.839024, 51.713900)">
                                <g id="Group-7" transform="translate(0.097493, 0.184199)">
                                    <g id="Group-39">
                                        <g id="Group-38" transform="translate(0.000000, 25.856950)">
                                            <g id="Rectangle-3">
                                                <use fill="#FFFFFF" fill-rule="evenodd" xlink:href="#path-14"></use>
                                                <path stroke="#D9D9DB" stroke-width="2" d="M60.9121273,31.3262458 L1,31.3262458 L1,16.1631229 C1,7.78911093 7.79041518,1 16.1656147,1 L45.7465127,1 C54.1229817,1 60.9121273,7.78752979 60.9121273,16.1631229 L60.9121273,31.3262458 Z"></path>
                                            </g>
                                            <g id="Group-9" transform="translate(3.951838, 4.040781)" stroke="#66A5F6" stroke-linecap="round" stroke-linejoin="round">
                                                <path d="M1.97591896,6.06117108 L9.87959479,0.673463453" id="Path-9"></path>
                                                <path d="M0.658639653,10.1019518 L15.148712,0.673463453" id="Path-9"></path>
                                                <path d="M0.658639653,14.1427325 L20.4178292,0.673463453" id="Path-9"></path>
                                                <path d="M0.658639653,18.1835132 L25.6869464,0.673463453" id="Path-9"></path>
                                                <path d="M0.658639653,22.224294 L30.9560637,0.673463453" id="Path-9"></path>
                                                <path d="M4.61047757,23.5712209 L36.2251809,0.673463453" id="Path-9"></path>
                                                <path d="M9.87959479,23.5712209 L41.4942981,0.673463453" id="Path-9"></path>
                                                <path d="M15.148712,23.5712209 L45.446136,2.02039036" id="Path-9"></path>
                                                <path d="M20.4178292,23.5712209 L49.3979739,3.36731727" id="Path-9"></path>
                                                <path d="M25.6869464,23.5712209 L50.7152532,6.06117108" id="Path-9"></path>
                                                <path d="M30.9560637,23.5712209 L52.0325325,8.75502489" id="Path-9"></path>
                                                <path d="M36.2251809,23.5712209 L53.3086627,11.642592" id="Path-9"></path>
                                                <path d="M40.8356585,24.050971 L53.3498119,15.4896594" id="Path-9"></path>
                                                <path d="M46.1047757,24.050971 L53.3498119,19.5304401" id="Path-9"></path>
                                                <path d="M51.3738929,24.050971 L53.7010232,22.5977906" id="Path-9"></path>
                                            </g>
                                        </g>
                                        <ellipse id="Oval-3" stroke="#D9D9DB" stroke-width="2" fill="#66A5F6" cx="27.4827207" cy="13.0180452" rx="12.7315012" ry="13.0180452"></ellipse>
                                    </g>
                                </g>
                                <ellipse id="Oval-4" stroke="#D9D9DB" fill="#F87C8B" cx="38.6341463" cy="40.9401704" rx="3.51219512" ry="3.59124302"></ellipse>
                                <ellipse id="Oval-4" stroke="#D9D9DB" fill="#FFD049" cx="34.0682927" cy="40.5810461" rx="2.45853659" ry="2.51387011"></ellipse>
                            </g>
                            <g id="Group-14" transform="translate(37.229268, 64.642374)">
                                <g id="Group-10" transform="translate(0.092546, 0.006745)">
                                    <g id="Group-37">
                                        <g id="Group-7" transform="translate(0.000000, 26.575198)">
                                            <g id="Group-11">
                                                <g id="Rectangle-3">
                                                    <use fill="#FFFFFF" fill-rule="evenodd" xlink:href="#path-15"></use>
                                                    <path stroke="#D9D9DB" stroke-width="2" d="M60.9121273,25.9385381 L1,25.9385381 L1,13.4692691 C1,6.57886092 6.5769631,1 13.4721742,1 L48.4399531,1 C55.3287768,1 60.9121273,6.58167827 60.9121273,13.4692691 L60.9121273,25.9385381 Z"></path>
                                                </g>
                                                <g id="Group-9" transform="translate(4.214634, 3.591243)" stroke="#FFD049" stroke-linecap="round" stroke-linejoin="round">
                                                    <path d="M1.97591896,5.0509759 L9.87959479,0.561219544" id="Path-9"></path>
                                                    <path d="M0.658639653,8.41829317 L15.148712,0.561219544" id="Path-9"></path>
                                                    <path d="M0.658639653,11.7856104 L20.4178292,0.561219544" id="Path-9"></path>
                                                    <path d="M0.658639653,15.1529277 L25.6869464,0.561219544" id="Path-9"></path>
                                                    <path d="M0.658639653,18.520245 L30.9560637,0.561219544" id="Path-9"></path>
                                                    <path d="M4.61047757,19.6426841 L36.2251809,0.561219544" id="Path-9"></path>
                                                    <path d="M9.87959479,19.6426841 L41.4942981,0.561219544" id="Path-9"></path>
                                                    <path d="M15.148712,19.6426841 L45.446136,1.68365863" id="Path-9"></path>
                                                    <path d="M20.4178292,19.6426841 L49.3979739,2.80609772" id="Path-9"></path>
                                                    <path d="M25.6869464,19.6426841 L50.7152532,5.0509759" id="Path-9"></path>
                                                    <path d="M30.9560637,19.6426841 L52.0325325,7.29585408" id="Path-9"></path>
                                                    <path d="M36.2251809,19.6426841 L53.3086627,9.70216002" id="Path-9"></path>
                                                    <path d="M40.8356585,20.0424758 L53.3498119,12.9080495" id="Path-9"></path>
                                                    <path d="M46.1047757,20.0424758 L53.3498119,16.2753668" id="Path-9"></path>
                                                    <path d="M51.3738929,20.0424758 L53.7010232,18.8314922" id="Path-9"></path>
                                                </g>
                                            </g>
                                        </g>
                                        <ellipse id="Oval-3" stroke="#D9D9DB" stroke-width="2" fill="#FFD049" cx="31.3461353" cy="13.3771695" rx="13.0827207" ry="13.3771695"></ellipse>
                                    </g>
                                </g>
                                <ellipse id="Oval-4" stroke="#D9D9DB" fill="#F87C8B" cx="26.3414634" cy="40.5810461" rx="2.45853659" ry="2.51387011"></ellipse>
                                <ellipse id="Oval-4" stroke="#D9D9DB" fill="#FFD049" cx="32.3121951" cy="43.8131649" rx="3.51219512" ry="3.59124302"></ellipse>
                                <ellipse id="Oval-4" stroke="#D9D9DB" fill="#66A5F6" cx="37.9317073" cy="39.5036732" rx="3.51219512" ry="3.59124302"></ellipse>
                            </g>
                        </g>
                    </g>
                </g>
            </g>
        </g>
    </g>
</svg>