<?xml version="1.0" encoding="UTF-8"?>
<svg width="113px" height="126px" viewBox="0 0 113 126" version="1.1" xmlns="http://www.w3.org/2000/svg" xmlns:xlink="http://www.w3.org/1999/xlink">
    <!-- Generator: Sketch 43.2 (39069) - http://www.bohemiancoding.com/sketch -->
    <title>Group 18</title>
    <desc>Created with Sketch.</desc>
    <defs>
        <rect id="path-1" x="37" y="28.1647059" width="35.52" height="10.3764706" rx="5.18823529"></rect>
    </defs>
    <g id="Page-1" stroke="none" stroke-width="1" fill="none" fill-rule="evenodd">
        <g id="Desktop-HD" transform="translate(-1018.000000, -1012.000000)">
            <g id="Group-45" transform="translate(923.000000, 1013.000000)">
                <g id="Group-18" transform="translate(96.000000, 0.000000)">
                    <g id="Group-16" transform="translate(0.000000, 36.576471)" stroke="#D9D9DB" stroke-width="2" fill="#F3F3F6">
                        <path d="M41.5743662,0.0266793965 L7.00559985,50.7986026 C-6.43994215,70.5463719 2.03928099,86.555102 25.9168886,86.555102 L85.054939,86.555102 C108.944897,86.555102 117.290356,70.6340647 103.689245,50.9860956 L68.4130964,0.0266793965 L41.5743662,0.0266793965 Z" id="Path-11"></path>
                    </g>
                    <path d="M40.9603304,30.475197 L26.6111094,8.76280522 C23.5664017,4.15573377 25.5807695,0.420964436 31.0910766,0.420964436 L79.8281697,0.420964436 C85.347095,0.420964436 87.227244,4.06116973 84.0187729,8.5639786 L68.4059606,30.475197 L40.9603304,30.475197 Z" id="Path-12" stroke="#D9D9DB" stroke-width="2" fill="#FFFFFF"></path>
                    <path d="M40.9603304,30.475197 L26.6111094,8.76280522 C23.5664017,4.15573377 25.5807695,0.420964436 31.0910766,0.420964436 L79.8281697,0.420964436 C85.347095,0.420964436 87.227244,4.06116973 84.0187729,8.5639786 L68.4059606,30.475197 L40.9603304,30.475197 Z" id="Path-12" stroke="#D9D9DB" stroke-width="2" fill="#FFFFFF"></path>
                    <path d="M40.9603304,30.475197 L26.6111094,8.76280522 C23.5664017,4.15573377 25.5807695,0.420964436 31.0910766,0.420964436 L79.8281697,0.420964436 C85.347095,0.420964436 87.227244,4.06116973 84.0187729,8.5639786 L68.4059606,30.475197 L40.9603304,30.475197 Z" id="Path-12" stroke="#D9D9DB" stroke-width="2" fill="#FFFFFF"></path>
                    <g id="Rectangle">
                        <use fill="#F87C8B" fill-rule="evenodd" xlink:href="#path-1"></use>
                        <rect stroke="#D9D9DB" stroke-width="1" x="37.5" y="28.6647059" width="34.52" height="9.37647059" rx="4.68823529"></rect>
                    </g>
                    <path d="M66.0205304,90.1567059 C66.0205304,92.9138961 65.1177395,95.1299916 63.3121304,96.8050588 C61.5065214,98.480126 59.1681448,99.4510575 56.2969304,99.7178824 L56.2969304,102.475059 C56.2969304,102.860473 56.1933315,103.164352 55.9861304,103.386706 C55.7789294,103.60906 55.5125321,103.720235 55.1869304,103.720235 C54.8317287,103.720235 54.5505315,103.60906 54.3433304,103.386706 C54.1361294,103.164352 54.0325304,102.860473 54.0325304,102.475059 L54.0325304,99.7623529 C51.6053183,99.6141169 49.4593398,98.9841232 47.5945304,97.8723529 C45.7297211,96.7605827 44.3977344,95.2708329 43.5985304,93.4030588 C43.50973,93.1658812 43.4653304,92.9435304 43.4653304,92.736 C43.4653304,92.024467 43.8501266,91.5501188 44.6197304,91.3129412 C44.7085309,91.283294 44.8417295,91.2684706 45.0193304,91.2684706 C45.729734,91.2684706 46.2477288,91.6242317 46.5733304,92.3357647 C47.1061331,93.5513002 48.0385238,94.5296434 49.3705304,95.2708235 C50.7025371,96.0120037 52.2565215,96.4270584 54.0325304,96.516 L54.0325304,82.8635294 C51.1317159,82.3595269 48.8451388,81.2774201 47.1727304,79.6171765 C45.5003221,77.9569329 44.6641304,75.8964829 44.6641304,73.4357647 C44.6641304,71.0046937 45.5299218,69.033184 47.2615304,67.5211765 C48.9931391,66.0091689 51.2501165,65.1345894 54.0325304,64.8974118 L54.0325304,62.7628235 C54.0325304,62.3774098 54.1361294,62.0735305 54.3433304,61.8511765 C54.5505315,61.6288224 54.8317287,61.5176471 55.1869304,61.5176471 C55.5125321,61.5176471 55.7789294,61.6288224 55.9861304,61.8511765 C56.1933315,62.0735305 56.2969304,62.3774098 56.2969304,62.7628235 L56.2969304,64.8974118 C58.3097405,65.0456478 60.0783228,65.616348 61.6027304,66.6095294 C63.1271381,67.6027108 64.2889264,68.8404632 65.0881304,70.3228235 C65.2953315,70.6489428 65.3989304,71.004704 65.3989304,71.3901176 C65.3989304,71.9534146 65.1473329,72.3684693 64.6441304,72.6352941 C64.4369294,72.7538829 64.2001318,72.8131765 63.9337304,72.8131765 C63.3417275,72.8131765 62.8533324,72.5315322 62.4685304,71.9682353 C61.1365238,69.5964587 59.0793443,68.2920012 56.2969304,68.0548235 L56.2969304,80.2842353 C59.4641463,80.8475322 61.8765221,81.9741092 63.5341304,83.664 C65.1917387,85.3538908 66.0205304,87.5181045 66.0205304,90.1567059 Z M47.9941304,73.5247059 C47.9941304,76.7858987 50.0069103,78.9056422 54.0325304,79.884 L54.0325304,68.0548235 C52.138121,68.2030596 50.6581358,68.7367013 49.5925304,69.6557647 C48.5269251,70.5748281 47.9941304,71.8644623 47.9941304,73.5247059 Z M62.6017304,90.1567059 C62.6017304,88.4668151 62.0763357,87.0141237 61.0255304,85.7985882 C59.9747252,84.5830527 58.3985409,83.73812 56.2969304,83.2637647 L56.2969304,96.4715294 C58.22094,96.2343518 59.7527247,95.5672996 60.8923304,94.4703529 C62.0319361,93.3734063 62.6017304,91.9355383 62.6017304,90.1567059 Z" id="$" fill="#F87C8B"></path>
                    <ellipse id="Oval-5" stroke="#D9D9DB" fill="#66A5F6" cx="90.28" cy="94.8705882" rx="7.4" ry="7.41176471"></ellipse>
                    <ellipse id="Oval-5" stroke="#D9D9DB" fill="#FFD049" cx="81.4" cy="106.729412" rx="8.88" ry="8.89411765"></ellipse>
                    <g id="Group-17" transform="translate(30.600000, 2.482353)" stroke="#66A5F6" stroke-linecap="round" stroke-linejoin="round">
                        <path d="M36.2776492,23.9866184 L49.6124425,4.66935613" id="Path-10"></path>
                        <path d="M32.3703623,23.9233697 L47.6951116,1.72668197" id="Path-10"></path>
                        <path d="M28.6,23.9866184 L44.14,1.22352941" id="Path-10"></path>
                        <path d="M24.8868058,24.0185844 L40.2449191,1.36857495" id="Path-10"></path>
                        <path d="M21.0640248,23.9775156 L36.4010457,1.2901556" id="Path-10"></path>
                        <path d="M17.116377,24.0302459 L32.3,1.22352941" id="Path-10"></path>
                        <path d="M13.2011345,23.9856704 L28.4036261,1.21091721" id="Path-10"></path>
                        <path d="M13.2011345,23.9856704 L28.4036261,1.21091721" id="Path-10"></path>
                        <path d="M10.6709962,22.1860667 L24.7083553,1.14025908" id="Path-10"></path>
                        <path d="M8.58162801,19.62229 L20.8228872,1.01461347" id="Path-10"></path>
                        <path d="M6.66025008,16.4035055 L16.9411186,1.02876124" id="Path-10"></path>
                        <path d="M4.57592666,13.3479256 L12.5733722,1.04324585" id="Path-10"></path>
                        <path d="M2.48067294,10.3873766 L8.74675957,0.83894542" id="Path-10"></path>
                        <path d="M0.380206307,6.73132018 L4.38523503,0.910863214" id="Path-10"></path>
                    </g>
                </g>
            </g>
        </g>
    </g>
</svg>