<?xml version="1.0" encoding="UTF-8"?>
<svg width="148px" height="125px" viewBox="0 0 148 125" version="1.1" xmlns="http://www.w3.org/2000/svg" xmlns:xlink="http://www.w3.org/1999/xlink">
    <!-- Generator: Sketch 43.2 (39069) - http://www.bohemiancoding.com/sketch -->
    <title>Group 4</title>
    <desc>Created with Sketch.</desc>
    <defs>
        <path d="M0,15.3369088 C0,6.86656794 6.86972285,0 15.3420734,0 L43.4160018,0 C51.889195,0 58.7580753,6.86470555 58.7580753,15.3369088 L58.7580753,30.6738175 L0,30.6738175 L0,15.3369088 Z" id="path-1"></path>
        <path d="M0,15.3369088 C0,6.86656794 6.86972285,0 15.3420734,0 L43.4160018,0 C51.889195,0 58.7580753,6.86470555 58.7580753,15.3369088 L58.7580753,30.6738175 L0,30.6738175 L0,15.3369088 Z" id="path-2"></path>
        <path d="M0,15.3369088 C0,6.86656794 6.86972285,0 15.3420734,0 L43.4160018,0 C51.889195,0 58.7580753,6.86470555 58.7580753,15.3369088 L58.7580753,30.6738175 L0,30.6738175 L0,15.3369088 Z" id="path-3"></path>
        <path d="M0,15.3369088 C0,6.86656794 6.86972285,0 15.3420734,0 L43.4160018,0 C51.889195,0 58.7580753,6.86470555 58.7580753,15.3369088 L58.7580753,30.6738175 L0,30.6738175 L0,15.3369088 Z" id="path-4"></path>
        <path d="M0,15.3369088 C0,6.86656794 6.86972285,0 15.3420734,0 L43.4160018,0 C51.889195,0 58.7580753,6.86470555 58.7580753,15.3369088 L58.7580753,30.6738175 L0,30.6738175 L0,15.3369088 Z" id="path-5"></path>
        <path d="M0,15.3369088 C0,6.86656794 6.86972285,0 15.3420734,0 L43.4160018,0 C51.889195,0 58.7580753,6.86470555 58.7580753,15.3369088 L58.7580753,30.6738175 L0,30.6738175 L0,15.3369088 Z" id="path-6"></path>
        <path d="M0,42.0915074 C0,33.6211666 6.86972285,26.7545986 15.3420734,26.7545986 L43.4160018,26.7545986 C51.889195,26.7545986 58.7580753,33.6193042 58.7580753,42.0915074 L58.7580753,57.4284161 L0,57.4284161 L0,42.0915074 Z" id="path-7"></path>
        <path d="M0,42.0915074 C0,33.6211666 6.86972285,26.7545986 15.3420734,26.7545986 L43.4160018,26.7545986 C51.889195,26.7545986 58.7580753,33.6193042 58.7580753,42.0915074 L58.7580753,57.4284161 L0,57.4284161 L0,42.0915074 Z" id="path-8"></path>
        <path d="M0,42.0915074 C0,33.6211666 6.86972285,26.7545986 15.3420734,26.7545986 L43.4160018,26.7545986 C51.889195,26.7545986 58.7580753,33.6193042 58.7580753,42.0915074 L58.7580753,57.4284161 L0,57.4284161 L0,42.0915074 Z" id="path-9"></path>
        <path d="M0,42.0915074 C0,33.6211666 6.86972285,26.7545986 15.3420734,26.7545986 L43.4160018,26.7545986 C51.889195,26.7545986 58.7580753,33.6193042 58.7580753,42.0915074 L58.7580753,57.4284161 L0,57.4284161 L0,42.0915074 Z" id="path-10"></path>
        <path d="M77.3318598,71.9939995 C77.3318598,63.5236587 84.2015826,56.6570907 92.6739332,56.6570907 L120.747862,56.6570907 C129.221055,56.6570907 136.089935,63.5217963 136.089935,71.9939995 L136.089935,87.3309082 L77.3318598,87.3309082 L77.3318598,71.9939995 Z" id="path-11"></path>
        <path d="M0,42.0915074 C0,33.6211666 6.86972285,26.7545986 15.3420734,26.7545986 L43.4160018,26.7545986 C51.889195,26.7545986 58.7580753,33.6193042 58.7580753,42.0915074 L58.7580753,57.4284161 L0,57.4284161 L0,42.0915074 Z" id="path-12"></path>
        <path d="M0,42.0915074 C0,33.6211666 6.86972285,26.7545986 15.3420734,26.7545986 L43.4160018,26.7545986 C51.889195,26.7545986 58.7580753,33.6193042 58.7580753,42.0915074 L58.7580753,57.4284161 L0,57.4284161 L0,42.0915074 Z" id="path-13"></path>
        <path d="M0,15.3369088 C0,6.86656794 6.86972285,0 15.3420734,0 L43.4160018,0 C51.889195,0 58.7580753,6.86470555 58.7580753,15.3369088 L58.7580753,30.6738175 L0,30.6738175 L0,15.3369088 Z" id="path-14"></path>
        <path d="M0,12.7807573 C0,5.72213995 5.71413192,0 12.7858476,0 L45.9722276,0 C53.0336563,0 58.7580753,5.72058796 58.7580753,12.7807573 L58.7580753,25.5615146 L0,25.5615146 L0,12.7807573 Z" id="path-15"></path>
    </defs>
    <g id="Page-1" stroke="none" stroke-width="1" fill="none" fill-rule="evenodd">
        <g id="Desktop-HD" transform="translate(-659.000000, -1025.000000)">
            <g id="Group-41" transform="translate(569.000000, 1026.000000)">
                <g id="Group-4" transform="translate(90.000000, 0.000000)">
                    <g id="Group-2">
                        <g id="Group-7" transform="translate(6.666540, 75.058501)">
                            <g id="Group-8">
                                <g id="Rectangle-3">
                                    <use fill="#FFFFFF" fill-rule="evenodd" xlink:href="#path-1"></use>
                                    <path stroke="#D9D9DB" stroke-width="2" d="M57.7580753,29.6738175 L1,29.6738175 L1,15.3369088 C1,7.41922748 7.42163274,1 15.3420734,1 L43.4160018,1 C51.3376479,1 57.7580753,7.41772769 57.7580753,15.3369088 L57.7580753,29.6738175 Z"></path>
                                </g>
                            </g>
                        </g>
                        <g id="Group-7" transform="translate(6.666540, 75.058501)">
                            <g id="Group-8">
                                <g id="Rectangle-3">
                                    <use fill="#FFFFFF" fill-rule="evenodd" xlink:href="#path-2"></use>
                                    <path stroke="#D9D9DB" stroke-width="2" d="M57.7580753,29.6738175 L1,29.6738175 L1,15.3369088 C1,7.41922748 7.42163274,1 15.3420734,1 L43.4160018,1 C51.3376479,1 57.7580753,7.41772769 57.7580753,15.3369088 L57.7580753,29.6738175 Z"></path>
                                </g>
                            </g>
                        </g>
                        <g id="Group-7" transform="translate(6.666540, 75.058501)">
                            <g id="Group-8">
                                <g id="Rectangle-3">
                                    <use fill="#FFFFFF" fill-rule="evenodd" xlink:href="#path-3"></use>
                                    <path stroke="#D9D9DB" stroke-width="2" d="M57.7580753,29.6738175 L1,29.6738175 L1,15.3369088 C1,7.41922748 7.42163274,1 15.3420734,1 L43.4160018,1 C51.3376479,1 57.7580753,7.41772769 57.7580753,15.3369088 L57.7580753,29.6738175 Z"></path>
                                </g>
                            </g>
                        </g>
                        <g id="Group-7" transform="translate(6.666540, 75.058501)">
                            <g id="Group-8">
                                <g id="Rectangle-3">
                                    <use fill="#FFFFFF" fill-rule="evenodd" xlink:href="#path-4"></use>
                                    <path stroke="#D9D9DB" stroke-width="2" d="M57.7580753,29.6738175 L1,29.6738175 L1,15.3369088 C1,7.41922748 7.42163274,1 15.3420734,1 L43.4160018,1 C51.3376479,1 57.7580753,7.41772769 57.7580753,15.3369088 L57.7580753,29.6738175 Z"></path>
                                </g>
                            </g>
                        </g>
                        <g id="Group-7" transform="translate(6.666540, 75.058501)">
                            <g id="Group-8">
                                <g id="Rectangle-3">
                                    <use fill="#FFFFFF" fill-rule="evenodd" xlink:href="#path-5"></use>
                                    <path stroke="#D9D9DB" stroke-width="2" d="M57.7580753,29.6738175 L1,29.6738175 L1,15.3369088 C1,7.41922748 7.42163274,1 15.3420734,1 L43.4160018,1 C51.3376479,1 57.7580753,7.41772769 57.7580753,15.3369088 L57.7580753,29.6738175 Z"></path>
                                </g>
                            </g>
                        </g>
                        <g id="Group-7" transform="translate(6.666540, 75.058501)">
                            <g id="Group-8">
                                <g id="Rectangle-3">
                                    <use fill="#FFFFFF" fill-rule="evenodd" xlink:href="#path-6"></use>
                                    <path stroke="#D9D9DB" stroke-width="2" d="M57.7580753,29.6738175 L1,29.6738175 L1,15.3369088 C1,7.41922748 7.42163274,1 15.3420734,1 L43.4160018,1 C51.3376479,1 57.7580753,7.41772769 57.7580753,15.3369088 L57.7580753,29.6738175 Z"></path>
                                </g>
                            </g>
                        </g>
                        <path d="M71.0503881,83.3659935 L78.551419,78.2536906" id="Path-9" stroke="#66A5F6" stroke-linecap="round" stroke-linejoin="round"></path>
                        <path d="M69.8002163,87.2002207 L83.5521062,78.2536906" id="Path-9" stroke="#66A5F6" stroke-linecap="round" stroke-linejoin="round"></path>
                        <path d="M69.8002163,91.0344479 L88.5527935,78.2536906" id="Path-9" stroke="#66A5F6" stroke-linecap="round" stroke-linejoin="round"></path>
                        <path d="M69.8002163,94.868675 L93.5534807,78.2536906" id="Path-9" stroke="#66A5F6" stroke-linecap="round" stroke-linejoin="round"></path>
                        <path d="M69.8002163,98.7029022 L98.554168,78.2536906" id="Path-9" stroke="#66A5F6" stroke-linecap="round" stroke-linejoin="round"></path>
                        <path d="M73.5507317,99.980978 L103.554855,78.2536906" id="Path-9" stroke="#66A5F6" stroke-linecap="round" stroke-linejoin="round"></path>
                        <path d="M78.551419,99.980978 L108.555543,78.2536906" id="Path-9" stroke="#66A5F6" stroke-linecap="round" stroke-linejoin="round"></path>
                        <path d="M83.5521062,99.980978 L112.306058,79.5317663" id="Path-9" stroke="#66A5F6" stroke-linecap="round" stroke-linejoin="round"></path>
                        <path d="M88.5527935,99.980978 L116.056573,80.809842" id="Path-9" stroke="#66A5F6" stroke-linecap="round" stroke-linejoin="round"></path>
                        <path d="M93.5534807,99.980978 L117.306745,83.3659935" id="Path-9" stroke="#66A5F6" stroke-linecap="round" stroke-linejoin="round"></path>
                        <path d="M98.554168,99.980978 L118.556917,85.9221449" id="Path-9" stroke="#66A5F6" stroke-linecap="round" stroke-linejoin="round"></path>
                        <path d="M103.554855,99.980978 L119.768036,88.6621076" id="Path-9" stroke="#66A5F6" stroke-linecap="round" stroke-linejoin="round"></path>
                        <path d="M107.930457,100.436205 L119.807089,92.3125236" id="Path-9" stroke="#66A5F6" stroke-linecap="round" stroke-linejoin="round"></path>
                        <path d="M112.931144,100.436205 L119.807089,96.1467508" id="Path-9" stroke="#66A5F6" stroke-linecap="round" stroke-linejoin="round"></path>
                        <path d="M117.931831,100.436205 L120.140408,99.0573068" id="Path-9" stroke="#66A5F6" stroke-linecap="round" stroke-linejoin="round"></path>
                        <g id="Group-36" transform="translate(66.665396, 6.133804)">
                            <g id="Group-7" transform="translate(0.000000, 0.596542)">
                                <g id="Group-8">
                                    <g id="Group-35">
                                        <ellipse id="Oval-3" stroke="#D9D9DB" stroke-width="2" fill="#F3F3F6" cx="29.6661014" cy="13.2899076" rx="12.9997523" ry="13.2899076"></ellipse>
                                        <g id="Rectangle-3">
                                            <use fill="#FFFFFF" fill-rule="evenodd" xlink:href="#path-7"></use>
                                            <path stroke="#D9D9DB" stroke-width="2" d="M57.7580753,56.4284161 L1,56.4284161 L1,42.0915074 C1,34.1738261 7.42163274,27.7545986 15.3420734,27.7545986 L43.4160018,27.7545986 C51.3376479,27.7545986 57.7580753,34.1723263 57.7580753,42.0915074 L57.7580753,56.4284161 Z"></path>
                                        </g>
                                    </g>
                                </g>
                            </g>
                            <g id="Group-9" transform="translate(3.750515, 31.095576)" stroke="#F87C8B" stroke-linecap="round" stroke-linejoin="round">
                                <path d="M1.87525772,5.84113249 L9.37628861,0.728829569" id="Path-9"></path>
                                <g id="Group-12">
                                    <path d="M0.625085907,9.67535968 L14.3769759,0.728829569" id="Path-9"></path>
                                    <path d="M0.625085907,13.5095869 L19.3776631,0.728829569" id="Path-9"></path>
                                    <path d="M0.625085907,17.3438141 L24.3783504,0.728829569" id="Path-9"></path>
                                    <path d="M0.625085907,21.1780413 L29.3790376,0.728829569" id="Path-9"></path>
                                    <path d="M4.37560135,22.456117 L34.3797249,0.728829569" id="Path-9"></path>
                                    <path d="M9.37628861,22.456117 L39.3804122,0.728829569" id="Path-9"></path>
                                    <path d="M14.3769759,22.456117 L43.1309276,2.0069053" id="Path-9"></path>
                                    <path d="M19.3776631,22.456117 L46.881443,3.28498103" id="Path-9"></path>
                                    <path d="M24.3783504,22.456117 L48.1316149,5.84113249" id="Path-9"></path>
                                    <path d="M29.3790376,22.456117 L49.3817867,8.39728395" id="Path-9"></path>
                                    <path d="M34.3797249,22.456117 L50.5929056,11.1372466" id="Path-9"></path>
                                    <path d="M38.7553262,22.9113436 L50.6319585,14.7876626" id="Path-9"></path>
                                    <path d="M43.7560135,22.9113436 L50.6319585,18.6218898" id="Path-9"></path>
                                    <path d="M48.7567008,22.9113436 L50.9652777,21.5324458" id="Path-9"></path>
                                </g>
                            </g>
                        </g>
                        <g id="Group-36" transform="translate(7.333194, 6.133804)">
                            <g id="Group-7" transform="translate(0.000000, 0.596542)">
                                <g id="Group-8">
                                    <g id="Group-35">
                                        <ellipse id="Oval-3" stroke="#D9D9DB" stroke-width="2" fill="#F3F3F6" cx="29.6661014" cy="13.2899076" rx="12.9997523" ry="13.2899076"></ellipse>
                                        <g id="Rectangle-3">
                                            <use fill="#FFFFFF" fill-rule="evenodd" xlink:href="#path-8"></use>
                                            <path stroke="#D9D9DB" stroke-width="2" d="M57.7580753,56.4284161 L1,56.4284161 L1,42.0915074 C1,34.1738261 7.42163274,27.7545986 15.3420734,27.7545986 L43.4160018,27.7545986 C51.3376479,27.7545986 57.7580753,34.1723263 57.7580753,42.0915074 L57.7580753,56.4284161 Z"></path>
                                        </g>
                                    </g>
                                </g>
                            </g>
                            <g id="Group-9" transform="translate(3.750515, 31.095576)" stroke="#F87C8B" stroke-linecap="round" stroke-linejoin="round">
                                <path d="M1.87525772,5.84113249 L9.37628861,0.728829569" id="Path-9"></path>
                                <g id="Group-12">
                                    <path d="M0.625085907,9.67535968 L14.3769759,0.728829569" id="Path-9"></path>
                                    <path d="M0.625085907,13.5095869 L19.3776631,0.728829569" id="Path-9"></path>
                                    <path d="M0.625085907,17.3438141 L24.3783504,0.728829569" id="Path-9"></path>
                                    <path d="M0.625085907,21.1780413 L29.3790376,0.728829569" id="Path-9"></path>
                                    <path d="M4.37560135,22.456117 L34.3797249,0.728829569" id="Path-9"></path>
                                    <path d="M9.37628861,22.456117 L39.3804122,0.728829569" id="Path-9"></path>
                                    <path d="M14.3769759,22.456117 L43.1309276,2.0069053" id="Path-9"></path>
                                    <path d="M19.3776631,22.456117 L46.881443,3.28498103" id="Path-9"></path>
                                    <path d="M24.3783504,22.456117 L48.1316149,5.84113249" id="Path-9"></path>
                                    <path d="M29.3790376,22.456117 L49.3817867,8.39728395" id="Path-9"></path>
                                    <path d="M34.3797249,22.456117 L50.5929056,11.1372466" id="Path-9"></path>
                                    <path d="M38.7553262,22.9113436 L50.6319585,14.7876626" id="Path-9"></path>
                                    <path d="M43.7560135,22.9113436 L50.6319585,18.6218898" id="Path-9"></path>
                                    <path d="M48.7567008,22.9113436 L50.9652777,21.5324458" id="Path-9"></path>
                                </g>
                            </g>
                        </g>
                        <g id="Group-36" transform="translate(36.665968, 0.000000)">
                            <g id="Group-7" transform="translate(0.000000, 0.596542)">
                                <g id="Group-8">
                                    <g id="Group-35">
                                        <ellipse id="Oval-3" stroke="#D9D9DB" stroke-width="2" fill="#F3F3F6" cx="29.6661014" cy="13.2899076" rx="12.9997523" ry="13.2899076"></ellipse>
                                        <g id="Rectangle-3">
                                            <use fill="#FFFFFF" fill-rule="evenodd" xlink:href="#path-9"></use>
                                            <path stroke="#D9D9DB" stroke-width="2" d="M57.7580753,56.4284161 L1,56.4284161 L1,42.0915074 C1,34.1738261 7.42163274,27.7545986 15.3420734,27.7545986 L43.4160018,27.7545986 C51.3376479,27.7545986 57.7580753,34.1723263 57.7580753,42.0915074 L57.7580753,56.4284161 Z"></path>
                                        </g>
                                    </g>
                                </g>
                            </g>
                            <g id="Group-9" transform="translate(3.750515, 31.095576)" stroke="#F87C8B" stroke-linecap="round" stroke-linejoin="round">
                                <path d="M1.87525772,5.84113249 L9.37628861,0.728829569" id="Path-9"></path>
                                <g id="Group-12">
                                    <path d="M0.625085907,9.67535968 L14.3769759,0.728829569" id="Path-9"></path>
                                    <path d="M0.625085907,13.5095869 L19.3776631,0.728829569" id="Path-9"></path>
                                    <path d="M0.625085907,17.3438141 L24.3783504,0.728829569" id="Path-9"></path>
                                    <path d="M0.625085907,21.1780413 L29.3790376,0.728829569" id="Path-9"></path>
                                    <path d="M4.37560135,22.456117 L34.3797249,0.728829569" id="Path-9"></path>
                                    <path d="M9.37628861,22.456117 L39.3804122,0.728829569" id="Path-9"></path>
                                    <path d="M14.3769759,22.456117 L43.1309276,2.0069053" id="Path-9"></path>
                                    <path d="M19.3776631,22.456117 L46.881443,3.28498103" id="Path-9"></path>
                                    <path d="M24.3783504,22.456117 L48.1316149,5.84113249" id="Path-9"></path>
                                    <path d="M29.3790376,22.456117 L49.3817867,8.39728395" id="Path-9"></path>
                                    <path d="M34.3797249,22.456117 L50.5929056,11.1372466" id="Path-9"></path>
                                    <path d="M38.7553262,22.9113436 L50.6319585,14.7876626" id="Path-9"></path>
                                    <path d="M43.7560135,22.9113436 L50.6319585,18.6218898" id="Path-9"></path>
                                    <path d="M48.7567008,22.9113436 L50.9652777,21.5324458" id="Path-9"></path>
                                </g>
                            </g>
                        </g>
                        <g id="Group-36" transform="translate(0.000000, 29.305950)">
                            <g id="Group-7" transform="translate(0.000000, 0.596542)">
                                <g id="Group-8">
                                    <g id="Group-35">
                                        <ellipse id="Oval-3" stroke="#D9D9DB" stroke-width="2" fill="#66A5F6" cx="29.6661014" cy="13.2899076" rx="12.9997523" ry="13.2899076"></ellipse>
                                        <g id="Rectangle-3">
                                            <use fill="#FFFFFF" fill-rule="evenodd" xlink:href="#path-10"></use>
                                            <path stroke="#D9D9DB" stroke-width="2" d="M57.7580753,56.4284161 L1,56.4284161 L1,42.0915074 C1,34.1738261 7.42163274,27.7545986 15.3420734,27.7545986 L43.4160018,27.7545986 C51.3376479,27.7545986 57.7580753,34.1723263 57.7580753,42.0915074 L57.7580753,56.4284161 Z"></path>
                                        </g>
                                    </g>
                                </g>
                            </g>
                            <g id="Group-9" transform="translate(3.750515, 31.095576)" stroke="#F87C8B" stroke-linecap="round" stroke-linejoin="round">
                                <path d="M1.87525772,5.84113249 L9.37628861,0.728829569" id="Path-9"></path>
                                <g id="Group-12">
                                    <path d="M0.625085907,9.67535968 L14.3769759,0.728829569" id="Path-9"></path>
                                    <path d="M0.625085907,13.5095869 L19.3776631,0.728829569" id="Path-9"></path>
                                    <path d="M0.625085907,17.3438141 L24.3783504,0.728829569" id="Path-9"></path>
                                    <path d="M0.625085907,21.1780413 L29.3790376,0.728829569" id="Path-9"></path>
                                    <path d="M4.37560135,22.456117 L34.3797249,0.728829569" id="Path-9"></path>
                                    <path d="M9.37628861,22.456117 L39.3804122,0.728829569" id="Path-9"></path>
                                    <path d="M14.3769759,22.456117 L43.1309276,2.0069053" id="Path-9"></path>
                                    <path d="M19.3776631,22.456117 L46.881443,3.28498103" id="Path-9"></path>
                                    <path d="M24.3783504,22.456117 L48.1316149,5.84113249" id="Path-9"></path>
                                    <path d="M29.3790376,22.456117 L49.3817867,8.39728395" id="Path-9"></path>
                                    <path d="M34.3797249,22.456117 L50.5929056,11.1372466" id="Path-9"></path>
                                    <path d="M38.7553262,22.9113436 L50.6319585,14.7876626" id="Path-9"></path>
                                    <path d="M43.7560135,22.9113436 L50.6319585,18.6218898" id="Path-9"></path>
                                    <path d="M48.7567008,22.9113436 L50.9652777,21.5324458" id="Path-9"></path>
                                </g>
                            </g>
                        </g>
                        <ellipse id="Oval-3" stroke="#D9D9DB" stroke-width="2" fill="#FFD049" cx="106.997961" cy="43.1923997" rx="12.9997523" ry="13.2899076"></ellipse>
                        <g id="Rectangle-3">
                            <use fill="#FFFFFF" fill-rule="evenodd" xlink:href="#path-11"></use>
                            <path stroke="#D9D9DB" stroke-width="2" d="M135.089935,86.3309082 L78.3318598,86.3309082 L78.3318598,71.9939995 C78.3318598,64.0763182 84.7534925,57.6570907 92.6739332,57.6570907 L120.747862,57.6570907 C128.669508,57.6570907 135.089935,64.0748184 135.089935,71.9939995 L135.089935,86.3309082 Z"></path>
                        </g>
                        <g id="Group-9" transform="translate(81.082375, 60.401526)" stroke="#F87C8B" stroke-linecap="round" stroke-linejoin="round">
                            <path d="M1.87525772,5.84113249 L9.37628861,0.728829569" id="Path-9"></path>
                            <g id="Group-12">
                                <path d="M0.625085907,9.67535968 L14.3769759,0.728829569" id="Path-9"></path>
                                <path d="M0.625085907,13.5095869 L19.3776631,0.728829569" id="Path-9"></path>
                                <path d="M0.625085907,17.3438141 L24.3783504,0.728829569" id="Path-9"></path>
                                <path d="M0.625085907,21.1780413 L29.3790376,0.728829569" id="Path-9"></path>
                                <path d="M4.37560135,22.456117 L34.3797249,0.728829569" id="Path-9"></path>
                                <path d="M9.37628861,22.456117 L39.3804122,0.728829569" id="Path-9"></path>
                                <path d="M14.3769759,22.456117 L43.1309276,2.0069053" id="Path-9"></path>
                                <path d="M19.3776631,22.456117 L46.881443,3.28498103" id="Path-9"></path>
                                <path d="M24.3783504,22.456117 L48.1316149,5.84113249" id="Path-9"></path>
                                <path d="M29.3790376,22.456117 L49.3817867,8.39728395" id="Path-9"></path>
                                <path d="M34.3797249,22.456117 L50.5929056,11.1372466" id="Path-9"></path>
                                <path d="M38.7553262,22.9113436 L50.6319585,14.7876626" id="Path-9"></path>
                                <path d="M43.7560135,22.9113436 L50.6319585,18.6218898" id="Path-9"></path>
                                <path d="M48.7567008,22.9113436 L50.9652777,21.5324458" id="Path-9"></path>
                            </g>
                        </g>
                        <g id="Group-13" transform="translate(36.665968, 27.261349)">
                            <g id="Group-36">
                                <g id="Group-7" transform="translate(0.000000, 0.596542)">
                                    <g id="Group-8">
                                        <g id="Group-35">
                                            <ellipse id="Oval-3" stroke="#D9D9DB" stroke-width="2" fill="#F87C8B" cx="29.6661014" cy="13.2899076" rx="12.9997523" ry="13.2899076"></ellipse>
                                            <g id="Rectangle-3">
                                                <use fill="#FFFFFF" fill-rule="evenodd" xlink:href="#path-12"></use>
                                                <path stroke="#D9D9DB" stroke-width="2" d="M57.7580753,56.4284161 L1,56.4284161 L1,42.0915074 C1,34.1738261 7.42163274,27.7545986 15.3420734,27.7545986 L43.4160018,27.7545986 C51.3376479,27.7545986 57.7580753,34.1723263 57.7580753,42.0915074 L57.7580753,56.4284161 Z"></path>
                                            </g>
                                        </g>
                                    </g>
                                </g>
                                <g id="Group-9" transform="translate(3.750515, 31.095576)" stroke="#F87C8B" stroke-linecap="round" stroke-linejoin="round">
                                    <path d="M1.87525772,5.84113249 L9.37628861,0.728829569" id="Path-9"></path>
                                    <g id="Group-12">
                                        <path d="M0.625085907,9.67535968 L14.3769759,0.728829569" id="Path-9"></path>
                                        <path d="M0.625085907,13.5095869 L19.3776631,0.728829569" id="Path-9"></path>
                                        <path d="M0.625085907,17.3438141 L24.3783504,0.728829569" id="Path-9"></path>
                                        <path d="M0.625085907,21.1780413 L29.3790376,0.728829569" id="Path-9"></path>
                                        <path d="M4.37560135,22.456117 L34.3797249,0.728829569" id="Path-9"></path>
                                        <path d="M9.37628861,22.456117 L39.3804122,0.728829569" id="Path-9"></path>
                                        <path d="M14.3769759,22.456117 L43.1309276,2.0069053" id="Path-9"></path>
                                        <path d="M19.3776631,22.456117 L46.881443,3.28498103" id="Path-9"></path>
                                        <path d="M24.3783504,22.456117 L48.1316149,5.84113249" id="Path-9"></path>
                                        <path d="M29.3790376,22.456117 L49.3817867,8.39728395" id="Path-9"></path>
                                        <path d="M34.3797249,22.456117 L50.5929056,11.1372466" id="Path-9"></path>
                                        <path d="M38.7553262,22.9113436 L50.6319585,14.7876626" id="Path-9"></path>
                                        <path d="M43.7560135,22.9113436 L50.6319585,18.6218898" id="Path-9"></path>
                                        <path d="M48.7567008,22.9113436 L50.9652777,21.5324458" id="Path-9"></path>
                                    </g>
                                </g>
                            </g>
                            <ellipse id="Oval-4" stroke="#D9D9DB" fill="#77ADF2" cx="19.3329649" cy="43.6181583" rx="3.33326982" ry="3.40766861"></ellipse>
                            <ellipse id="Oval-4" stroke="#D9D9DB" fill="#FFD049" cx="24.9995236" cy="40.5512565" rx="2.33328887" ry="2.38536803"></ellipse>
                        </g>
                        <g id="Group-36" transform="translate(6.666540, 47.707361)">
                            <g id="Group-7" transform="translate(0.000000, 0.596542)">
                                <g id="Group-8">
                                    <g id="Group-35">
                                        <ellipse id="Oval-3" stroke="#D9D9DB" stroke-width="2" fill="#F87C8B" cx="29.6661014" cy="13.2899076" rx="12.9997523" ry="13.2899076"></ellipse>
                                        <g id="Rectangle-3">
                                            <use fill="#FFFFFF" fill-rule="evenodd" xlink:href="#path-13"></use>
                                            <path stroke="#D9D9DB" stroke-width="2" d="M57.7580753,56.4284161 L1,56.4284161 L1,42.0915074 C1,34.1738261 7.42163274,27.7545986 15.3420734,27.7545986 L43.4160018,27.7545986 C51.3376479,27.7545986 57.7580753,34.1723263 57.7580753,42.0915074 L57.7580753,56.4284161 Z"></path>
                                        </g>
                                    </g>
                                </g>
                            </g>
                            <g id="Group-9" transform="translate(3.750515, 31.095576)" stroke="#F87C8B" stroke-linecap="round" stroke-linejoin="round">
                                <path d="M1.87525772,5.84113249 L9.37628861,0.728829569" id="Path-9"></path>
                                <g id="Group-12">
                                    <path d="M0.625085907,9.67535968 L14.3769759,0.728829569" id="Path-9"></path>
                                    <path d="M0.625085907,13.5095869 L19.3776631,0.728829569" id="Path-9"></path>
                                    <path d="M0.625085907,17.3438141 L24.3783504,0.728829569" id="Path-9"></path>
                                    <path d="M0.625085907,21.1780413 L29.3790376,0.728829569" id="Path-9"></path>
                                    <path d="M4.37560135,22.456117 L34.3797249,0.728829569" id="Path-9"></path>
                                    <path d="M9.37628861,22.456117 L39.3804122,0.728829569" id="Path-9"></path>
                                    <path d="M14.3769759,22.456117 L43.1309276,2.0069053" id="Path-9"></path>
                                    <path d="M19.3776631,22.456117 L46.881443,3.28498103" id="Path-9"></path>
                                    <path d="M24.3783504,22.456117 L48.1316149,5.84113249" id="Path-9"></path>
                                    <path d="M29.3790376,22.456117 L49.3817867,8.39728395" id="Path-9"></path>
                                    <path d="M34.3797249,22.456117 L50.5929056,11.1372466" id="Path-9"></path>
                                    <path d="M38.7553262,22.9113436 L50.6319585,14.7876626" id="Path-9"></path>
                                    <path d="M43.7560135,22.9113436 L50.6319585,18.6218898" id="Path-9"></path>
                                    <path d="M48.7567008,22.9113436 L50.9652777,21.5324458" id="Path-9"></path>
                                </g>
                            </g>
                        </g>
                        <ellipse id="Oval-4" stroke="#D9D9DB" fill="#77ADF2" cx="25.9995046" cy="91.3255189" rx="3.33326982" ry="3.40766861"></ellipse>
                        <ellipse id="Oval-4" stroke="#D9D9DB" fill="#FFD049" cx="31.6660633" cy="88.2586171" rx="2.33328887" ry="2.38536803"></ellipse>
                        <g id="Group-15" transform="translate(65.332088, 49.070428)">
                            <g id="Group-7" transform="translate(0.092526, 0.174783)">
                                <g id="Group-39">
                                    <g id="Group-38" transform="translate(0.000000, 24.535214)">
                                        <g id="Rectangle-3">
                                            <use fill="#FFFFFF" fill-rule="evenodd" xlink:href="#path-14"></use>
                                            <path stroke="#D9D9DB" stroke-width="2" d="M57.7580753,29.6738175 L1,29.6738175 L1,15.3369088 C1,7.41922748 7.42163274,1 15.3420734,1 L43.4160018,1 C51.3376479,1 57.7580753,7.41772769 57.7580753,15.3369088 L57.7580753,29.6738175 Z"></path>
                                        </g>
                                        <g id="Group-9" transform="translate(3.750515, 3.834227)" stroke="#66A5F6" stroke-linecap="round" stroke-linejoin="round">
                                            <path d="M1.87525772,5.75134079 L9.37628861,0.639037865" id="Path-9"></path>
                                            <path d="M0.625085907,9.58556798 L14.3769759,0.639037865" id="Path-9"></path>
                                            <path d="M0.625085907,13.4197952 L19.3776631,0.639037865" id="Path-9"></path>
                                            <path d="M0.625085907,17.2540224 L24.3783504,0.639037865" id="Path-9"></path>
                                            <path d="M0.625085907,21.0882495 L29.3790376,0.639037865" id="Path-9"></path>
                                            <path d="M4.37560135,22.3663253 L34.3797249,0.639037865" id="Path-9"></path>
                                            <path d="M9.37628861,22.3663253 L39.3804122,0.639037865" id="Path-9"></path>
                                            <path d="M14.3769759,22.3663253 L43.1309276,1.9171136" id="Path-9"></path>
                                            <path d="M19.3776631,22.3663253 L46.881443,3.19518933" id="Path-9"></path>
                                            <path d="M24.3783504,22.3663253 L48.1316149,5.75134079" id="Path-9"></path>
                                            <path d="M29.3790376,22.3663253 L49.3817867,8.30749225" id="Path-9"></path>
                                            <path d="M34.3797249,22.3663253 L50.5929056,11.0474549" id="Path-9"></path>
                                            <path d="M38.7553262,22.8215519 L50.6319585,14.6978709" id="Path-9"></path>
                                            <path d="M43.7560135,22.8215519 L50.6319585,18.5320981" id="Path-9"></path>
                                            <path d="M48.7567008,22.8215519 L50.9652777,21.4426541" id="Path-9"></path>
                                        </g>
                                    </g>
                                    <ellipse id="Oval-3" stroke="#D9D9DB" stroke-width="2" fill="#66A5F6" cx="26.0826407" cy="12.3525987" rx="12.0829075" ry="12.3525987"></ellipse>
                                </g>
                            </g>
                            <ellipse id="Oval-4" stroke="#D9D9DB" fill="#F87C8B" cx="36.665968" cy="38.8474222" rx="3.33326982" ry="3.40766861"></ellipse>
                            <ellipse id="Oval-4" stroke="#D9D9DB" fill="#FFD049" cx="32.3327172" cy="38.5066553" rx="2.33328887" ry="2.38536803"></ellipse>
                        </g>
                        <g id="Group-14" transform="translate(35.332660, 61.338035)">
                            <g id="Group-10" transform="translate(0.087831, 0.006400)">
                                <g id="Group-37">
                                    <g id="Group-7" transform="translate(0.000000, 25.216748)">
                                        <g id="Group-11">
                                            <g id="Rectangle-3">
                                                <use fill="#FFFFFF" fill-rule="evenodd" xlink:href="#path-15"></use>
                                                <path stroke="#D9D9DB" stroke-width="2" d="M57.7580753,24.5615146 L1,24.5615146 L1,12.7807573 C1,6.27083599 6.27000483,1 12.7858476,1 L45.9722276,1 C52.4820157,1 57.7580753,6.27351667 57.7580753,12.7807573 L57.7580753,24.5615146 Z"></path>
                                            </g>
                                            <g id="Group-9" transform="translate(3.999924, 3.407669)" stroke="#FFD049" stroke-linecap="round" stroke-linejoin="round">
                                                <path d="M1.87525772,4.79278399 L9.37628861,0.532531554" id="Path-9"></path>
                                                <path d="M0.625085907,7.98797331 L14.3769759,0.532531554" id="Path-9"></path>
                                                <path d="M0.625085907,11.1831626 L19.3776631,0.532531554" id="Path-9"></path>
                                                <path d="M0.625085907,14.378352 L24.3783504,0.532531554" id="Path-9"></path>
                                                <path d="M0.625085907,17.5735413 L29.3790376,0.532531554" id="Path-9"></path>
                                                <path d="M4.37560135,18.6386044 L34.3797249,0.532531554" id="Path-9"></path>
                                                <path d="M9.37628861,18.6386044 L39.3804122,0.532531554" id="Path-9"></path>
                                                <path d="M14.3769759,18.6386044 L43.1309276,1.59759466" id="Path-9"></path>
                                                <path d="M19.3776631,18.6386044 L46.881443,2.66265777" id="Path-9"></path>
                                                <path d="M24.3783504,18.6386044 L48.1316149,4.79278399" id="Path-9"></path>
                                                <path d="M29.3790376,18.6386044 L49.3817867,6.9229102" id="Path-9"></path>
                                                <path d="M34.3797249,18.6386044 L50.5929056,9.20621245" id="Path-9"></path>
                                                <path d="M38.7553262,19.0179599 L50.6319585,12.2482257" id="Path-9"></path>
                                                <path d="M43.7560135,19.0179599 L50.6319585,15.4434151" id="Path-9"></path>
                                                <path d="M48.7567008,19.0179599 L50.9652777,17.8688784" id="Path-9"></path>
                                            </g>
                                        </g>
                                    </g>
                                    <ellipse id="Oval-3" stroke="#D9D9DB" stroke-width="2" fill="#FFD049" cx="29.7492375" cy="12.6933656" rx="12.4162344" ry="12.6933656"></ellipse>
                                </g>
                            </g>
                            <ellipse id="Oval-4" stroke="#D9D9DB" fill="#F87C8B" cx="24.9995236" cy="38.5066553" rx="2.33328887" ry="2.38536803"></ellipse>
                            <ellipse id="Oval-4" stroke="#D9D9DB" fill="#FFD049" cx="30.6660823" cy="41.5735571" rx="3.33326982" ry="3.40766861"></ellipse>
                            <ellipse id="Oval-4" stroke="#D9D9DB" fill="#66A5F6" cx="35.999314" cy="37.4843548" rx="3.33326982" ry="3.40766861"></ellipse>
                        </g>
                    </g>
                    <g id="Group-40" transform="translate(106.804688, 83.814815)" stroke="#F87C8B" stroke-width="2">
                        <ellipse id="Oval-3" fill="#FFFFFF" cx="19.9827478" cy="19.6778727" rx="19.3829159" ry="19.3780324"></ellipse>
                        <path d="M32.9046918,6.7591845 L9.21446118,32.596561" id="Line" stroke-linecap="square"></path>
                    </g>
                </g>
            </g>
        </g>
    </g>
</svg>