<?xml version="1.0" encoding="UTF-8"?>
<svg width="163px" height="178px" viewBox="0 0 163 178" version="1.1" xmlns="http://www.w3.org/2000/svg" xmlns:xlink="http://www.w3.org/1999/xlink">
    <!-- Generator: Sketch 43.2 (39069) - http://www.bohemiancoding.com/sketch -->
    <title>Group 21</title>
    <desc>Created with Sketch.</desc>
    <defs>
        <path d="M72.8851351,52.09456 C72.8851351,51.5450643 73.3340781,51.1084782 73.882761,51.1241492 C73.882761,51.1241492 79.7742213,51.1737315 88.1148649,52.4505612 C96.4555084,53.7273908 102.428622,56.0790294 102.428622,56.0790294 C102.9345,56.2653523 103.344595,56.8695068 103.344595,57.4160109 L103.344595,60.7312683 C103.344595,61.2833399 102.917756,61.5657903 102.410928,61.374427 C102.410928,61.374427 94.3057673,58.151637 87.3164372,57.2185825 C80.327107,56.285528 73.8877572,55.8627739 73.8877572,55.8627739 C73.3340243,55.8232041 72.8851351,55.3412842 72.8851351,54.7961765 L72.8851351,52.09456 Z" id="path-1"></path>
    </defs>
    <g id="Page-1" stroke="none" stroke-width="1" fill="none" fill-rule="evenodd">
        <g id="Desktop-HD" transform="translate(-987.000000, -1618.000000)">
            <g id="Group-17" transform="translate(221.000000, 1529.000000)">
                <g id="Group-25">
                    <g id="Group-24" transform="translate(0.000000, 90.000000)">
                        <g id="Group-21" transform="translate(767.000000, 0.000000)">
                            <g id="Group-5">
                                <path d="M31.8838382,61.7319919 C31.8838382,61.7319919 61.9392128,35.0292817 104.426456,51.4810016 C146.913699,67.9327216 143.874001,104.021191 143.874001,104.021191 C143.874001,104.021191 145.074019,116.808598 138.083237,130.914351 C131.092455,145.020105 119.784662,151.542459 119.784662,151.542459 L117.427377,175.185007 L104.226897,175.185007 L104.226897,160.733981 C104.226897,160.733981 96.7141631,166.159161 80.9689795,167.800659 C65.223796,169.442156 57.8700911,164.695952 57.8700911,164.695952 L57.2089647,175.195844 L43.3000131,175.097827 L41.9829532,158.662691 C41.9829532,158.662691 17.6472769,153.630674 10.1625562,117.697372 C2.67783548,81.7640706 31.8838382,61.7319919 31.8838382,61.7319919 Z" id="Path-18" stroke="#D9D9DB" stroke-width="2" fill="#F3F3F6" stroke-linecap="round" stroke-linejoin="round"></path>
                                <ellipse id="Oval-4" stroke="#D9D9DB" fill="#F87C8B" cx="101.233437" cy="123.269049" rx="6.59154547" ry="6.6731745"></ellipse>
                                <ellipse id="Oval-4" stroke="#D9D9DB" fill="#FFD049" cx="111.450489" cy="133.691355" rx="8.10589428" ry="8.20627685"></ellipse>
                                <ellipse id="Oval-4" stroke="#D9D9DB" fill="#66A5F6" cx="122.255958" cy="120.329267" rx="9.12082334" ry="9.23377469"></ellipse>
                                <path d="M51.3470434,81.4105686 C51.3470434,81.4105686 46.6777354,71.5563138 46.0507887,67.7950385 C45.4238419,64.0337632 45.5931959,59.7076132 46.7076042,57.7918506 C47.8220125,55.8760881 51.6463722,55.6334113 53.8080624,56.7919676 C54.4915179,57.158265 52.9666242,55.9779118 57.5409538,58.8371662 C62.1152833,61.6964205 66.1738128,65.7290393 66.1738128,65.7290393 C66.1738128,65.7290393 62.5119278,67.5589671 58.5212712,71.7796842 C54.5306147,76.0004012 51.3470434,81.4105686 51.3470434,81.4105686 Z" id="Path-19" fill="#66A5F6" transform="translate(55.931501, 68.751121) scale(-1, 1) translate(-55.931501, -68.751121) "></path>
                                <ellipse id="Oval" stroke="#F3F3F6" fill="#D8D8D8" cx="22.3006757" cy="89.0939649" rx="2.71959459" ry="4.40030558"></ellipse>
                                <ellipse id="Oval" stroke="#F3F3F6" fill="#D8D8D8" cx="40.7939189" cy="97.894576" rx="2.71959459" ry="4.40030558"></ellipse>
                                <path d="M24.1455426,79.1395194 C24.1455426,79.1395194 18.0689388,67.3895326 17.441992,63.6282573 C16.8150453,59.866982 16.9843993,55.540832 18.0988076,53.6250694 C19.2132158,51.7093069 23.0375755,51.46663 25.1992658,52.6251863 C25.8827213,52.9914838 24.3578276,51.8111306 28.9321572,54.6703849 C33.5064867,57.5296392 37.5650161,61.562258 37.5650161,61.562258 C37.5650161,61.562258 33.4559158,63.7946453 29.960363,68.3732336 C26.4648103,72.9518219 24.1455426,79.1395194 24.1455426,79.1395194 Z" id="Path-19" fill="#66A5F6" transform="translate(27.322704, 65.532206) rotate(17.000000) translate(-27.322704, -65.532206) "></path>
                                <g id="Group-20" transform="translate(0.000000, 98.909091)">
                                    <ellipse id="Oval-7" stroke="#D9D9DB" fill="#FFFFFF" cx="15.7736486" cy="16.0366692" rx="15.7736486" ry="15.9511077"></ellipse>
                                    <g id="Group-19" transform="translate(1.450450, 1.454545)" stroke="#F87C8B" stroke-linecap="round" stroke-linejoin="round">
                                        <path d="M5.03583613,4.17358604 L7.97747748,2.18181818" id="Path-9"></path>
                                        <path d="M1.5142291,10.1026325 L15.2297297,0.727272727" id="Path-9"></path>
                                        <path d="M15.954955,28.2844507 L26.3303538,21.3765711" id="Path-9"></path>
                                        <path d="M0.634999532,14.3403525 L18.9939311,1.85724207" id="Path-9"></path>
                                        <path d="M7.25225225,26.1467234 L27.65621,12.385425" id="Path-9"></path>
                                        <path d="M10.4235038,27.9199267 L27.7181659,16.4275249" id="Path-9"></path>
                                        <path d="M1.26572475,18.1604654 L22.5134543,3.69293726" id="Path-9"></path>
                                        <path d="M4.48238864,24.1765859 L26.7526154,8.96474875" id="Path-9"></path>
                                        <path d="M2.45423891,21.3491172 L24.9524784,5.97810872" id="Path-9"></path>
                                    </g>
                                    <ellipse id="Oval-8" stroke="#D9D9DB" fill="#D8D8D8" cx="7.97747748" cy="15.2910619" rx="2.17567568" ry="2.20015279"></ellipse>
                                    <ellipse id="Oval-8" stroke="#D9D9DB" fill="#D8D8D8" cx="19.5810811" cy="18.2001528" rx="2.17567568" ry="2.20015279"></ellipse>
                                </g>
                                <g id="Rectangle-4">
                                    <use fill="#FFD049" fill-rule="evenodd" xlink:href="#path-1"></use>
                                    <path stroke="#D9D9DB" stroke-width="1" d="M73.3851351,52.09456 C73.3851351,51.8267439 73.6014779,51.6163193 73.8684863,51.6239453 C74.058144,51.6256429 74.4083207,51.6332423 74.9156187,51.6515226 C75.7636588,51.6820812 76.7419301,51.7325039 77.8369626,51.8073793 C80.9679197,52.0214656 84.4046165,52.3884017 88.0392037,52.9448034 C90.4346741,53.3115146 92.7753271,53.7883195 95.0331208,54.348889 C96.9724423,54.8303876 98.7428528,55.3461515 100.307736,55.8616146 C100.854579,56.0417412 101.336377,56.2088411 101.748561,56.3585895 C101.994438,56.447918 102.161591,56.5112538 102.245454,56.5442709 C102.561519,56.6608137 102.844595,57.0751873 102.844595,57.4160109 L102.844595,60.7312683 C102.844595,60.9278416 102.772876,60.9766349 102.587544,60.9066589 C102.506711,60.8744361 102.338321,60.8089427 102.097682,60.7176279 C101.697897,60.5659224 101.240256,60.3970083 100.731933,60.2151844 C99.2803664,59.6959687 97.7124491,59.1768392 96.0853716,58.6921816 C93.9749105,58.0635385 91.921671,57.5402728 89.9832909,57.157597 C89.081698,56.9796041 88.2135025,56.8339023 87.3825987,56.7229792 C84.3168853,56.3137157 81.1367785,55.9712761 78.0256795,55.6927742 C76.9368443,55.5953029 75.9343019,55.5127766 75.0410268,55.4448476 C74.7282086,55.4210594 74.4513347,55.4007915 74.2132782,55.3840006 C74.070163,55.3739062 73.9719847,55.367228 73.9205125,55.3638479 C73.6321066,55.3432301 73.3851351,55.0797533 73.3851351,54.7961765 L73.3851351,52.09456 Z"></path>
                                </g>
                                <path d="M26.3636939,149.556296 L24.8604092,171.784316 L38.2232849,171.784316 L38.2232849,157.54217 C38.2232849,157.54217 33.8186133,155.14824 31.8447212,153.901197 C29.870829,152.654154 26.3636939,149.556296 26.3636939,149.556296 Z" id="Path-20" stroke="#D9D9DB" fill="#F3F3F6" stroke-linecap="round" stroke-linejoin="round"></path>
                                <path d="M90.6050256,166.156564 L90.6050256,172.552454 L99.6410191,172.552454 L99.6410191,163.184124 C99.6410191,163.184124 96.4487622,164.637452 94.8271782,165.170881 C93.2055941,165.70431 90.6050256,166.156564 90.6050256,166.156564 Z" id="Path-21" stroke="#D9D9DB" fill="#F3F3F6" stroke-linecap="round" stroke-linejoin="round"></path>
                                <path d="M145.77027,103.269391 C145.77027,103.269391 147.033562,101.493294 151.139354,101.493294 C155.245146,101.493294 155.930416,103.625777 156.627827,105.668637 C157.325238,107.711497 156.200789,109.257688 154.745639,110.182077 C153.290488,111.106467 151.840593,110.816745 150.469651,109.423742 C149.098708,108.030738 149.739058,106.170845 150.469651,104.320358 C151.200244,102.469871 155.894881,101.281491 155.894881,101.281491 C155.894881,101.281491 158.113508,101.086448 159.012773,101.281491 C159.912038,101.476534 160.419705,102.262889 160.419705,102.262889" id="Path-22" stroke="#F87C8B" stroke-width="2" stroke-linecap="round" stroke-linejoin="round"></path>
                                <g id="Group-6" transform="translate(79.774775, 11.636364)">
                                    <ellipse id="Oval-4" stroke="#FFD049" stroke-width="2" fill="#FFFFFF" cx="10.8783784" cy="11.0130951" rx="10.8783784" ry="11.0130951"></ellipse>
                                    <path d="M13.8372973,14.4581818 C13.8372973,15.3600045 13.5423753,16.0848457 12.9525225,16.6327273 C12.3626697,17.1806088 11.5987735,17.4981814 10.6608108,17.5854545 L10.6608108,18.4872727 C10.6608108,18.613334 10.6269673,18.7127269 10.5592793,18.7854545 C10.4915913,18.8581822 10.4045651,18.8945455 10.2981982,18.8945455 C10.1821616,18.8945455 10.0903006,18.8581822 10.0226126,18.7854545 C9.95492459,18.7127269 9.92108108,18.613334 9.92108108,18.4872727 L9.92108108,17.6 C9.1281642,17.5515149 8.42712016,17.3454564 7.81792793,16.9818182 C7.20873569,16.61818 6.77360491,16.1309121 6.51252252,15.52 C6.48351337,15.4424239 6.46900901,15.3696973 6.46900901,15.3018182 C6.46900901,15.0690897 6.59471346,14.9139398 6.84612613,14.8363636 C6.87513528,14.8266666 6.91864836,14.8218182 6.97666667,14.8218182 C7.2087399,14.8218182 7.37795743,14.9381807 7.48432432,15.1709091 C7.65837925,15.5684868 7.9629708,15.8884836 8.39810811,16.1309091 C8.83324542,16.3733345 9.340898,16.5090908 9.92108108,16.5381818 L9.92108108,12.0727273 C8.97344872,11.907878 8.2264742,11.5539421 7.68013514,11.0109091 C7.13379607,10.4678761 6.86063063,9.79394342 6.86063063,8.98909091 C6.86063063,8.19393542 7.14346564,7.54909338 7.70914414,7.05454545 C8.27482265,6.55999753 9.01212759,6.27393978 9.92108108,6.19636364 L9.92108108,5.49818182 C9.92108108,5.37212058 9.95492459,5.27272764 10.0226126,5.2 C10.0903006,5.12727236 10.1821616,5.09090909 10.2981982,5.09090909 C10.4045651,5.09090909 10.4915913,5.12727236 10.5592793,5.2 C10.6269673,5.27272764 10.6608108,5.37212058 10.6608108,5.49818182 L10.6608108,6.19636364 C11.3183516,6.24484873 11.8961086,6.43151353 12.3940991,6.75636364 C12.8920896,7.08121375 13.2716203,7.48605818 13.5327027,7.97090909 C13.6003907,8.07757629 13.6342342,8.19393876 13.6342342,8.32 C13.6342342,8.50424335 13.5520429,8.63999956 13.3876577,8.72727273 C13.3199696,8.7660608 13.242613,8.78545455 13.1555856,8.78545455 C12.9621912,8.78545455 12.8026433,8.69333425 12.6769369,8.50909091 C12.2417996,7.73332945 11.5697643,7.30666705 10.6608108,7.22909091 L10.6608108,11.2290909 C11.6954706,11.4133343 12.4835408,11.7818154 13.025045,12.3345455 C13.5665493,12.8872755 13.8372973,13.5951472 13.8372973,14.4581818 Z M7.94846847,9.01818182 C7.94846847,10.0848538 8.60599943,10.7781802 9.92108108,11.0981818 L9.92108108,7.22909091 C9.30221913,7.277576 8.81874048,7.45211971 8.47063063,7.75272727 C8.12252078,8.05333484 7.94846847,8.4751488 7.94846847,9.01818182 Z M12.7204505,14.4581818 C12.7204505,13.9054518 12.5488155,13.430305 12.2055405,13.0327273 C11.8622656,12.6351495 11.3473608,12.3587887 10.6608108,12.2036364 L10.6608108,16.5236364 C11.2893425,16.4460602 11.7897429,16.2278806 12.162027,15.8690909 C12.5343112,15.5103012 12.7204505,15.0400029 12.7204505,14.4581818 Z" id="$" fill="#FFD049"></path>
                                </g>
                                <g id="Group-6" transform="translate(95.729730, 0.000000)">
                                    <ellipse id="Oval-4" stroke="#FFD049" stroke-width="2" fill="#FFFFFF" cx="10.8783784" cy="11.0130951" rx="10.8783784" ry="11.0130951"></ellipse>
                                    <path d="M13.8372973,14.4581818 C13.8372973,15.3600045 13.5423753,16.0848457 12.9525225,16.6327273 C12.3626697,17.1806088 11.5987735,17.4981814 10.6608108,17.5854545 L10.6608108,18.4872727 C10.6608108,18.613334 10.6269673,18.7127269 10.5592793,18.7854545 C10.4915913,18.8581822 10.4045651,18.8945455 10.2981982,18.8945455 C10.1821616,18.8945455 10.0903006,18.8581822 10.0226126,18.7854545 C9.95492459,18.7127269 9.92108108,18.613334 9.92108108,18.4872727 L9.92108108,17.6 C9.1281642,17.5515149 8.42712016,17.3454564 7.81792793,16.9818182 C7.20873569,16.61818 6.77360491,16.1309121 6.51252252,15.52 C6.48351337,15.4424239 6.46900901,15.3696973 6.46900901,15.3018182 C6.46900901,15.0690897 6.59471346,14.9139398 6.84612613,14.8363636 C6.87513528,14.8266666 6.91864836,14.8218182 6.97666667,14.8218182 C7.2087399,14.8218182 7.37795743,14.9381807 7.48432432,15.1709091 C7.65837925,15.5684868 7.9629708,15.8884836 8.39810811,16.1309091 C8.83324542,16.3733345 9.340898,16.5090908 9.92108108,16.5381818 L9.92108108,12.0727273 C8.97344872,11.907878 8.2264742,11.5539421 7.68013514,11.0109091 C7.13379607,10.4678761 6.86063063,9.79394342 6.86063063,8.98909091 C6.86063063,8.19393542 7.14346564,7.54909338 7.70914414,7.05454545 C8.27482265,6.55999753 9.01212759,6.27393978 9.92108108,6.19636364 L9.92108108,5.49818182 C9.92108108,5.37212058 9.95492459,5.27272764 10.0226126,5.2 C10.0903006,5.12727236 10.1821616,5.09090909 10.2981982,5.09090909 C10.4045651,5.09090909 10.4915913,5.12727236 10.5592793,5.2 C10.6269673,5.27272764 10.6608108,5.37212058 10.6608108,5.49818182 L10.6608108,6.19636364 C11.3183516,6.24484873 11.8961086,6.43151353 12.3940991,6.75636364 C12.8920896,7.08121375 13.2716203,7.48605818 13.5327027,7.97090909 C13.6003907,8.07757629 13.6342342,8.19393876 13.6342342,8.32 C13.6342342,8.50424335 13.5520429,8.63999956 13.3876577,8.72727273 C13.3199696,8.7660608 13.242613,8.78545455 13.1555856,8.78545455 C12.9621912,8.78545455 12.8026433,8.69333425 12.6769369,8.50909091 C12.2417996,7.73332945 11.5697643,7.30666705 10.6608108,7.22909091 L10.6608108,11.2290909 C11.6954706,11.4133343 12.4835408,11.7818154 13.025045,12.3345455 C13.5665493,12.8872755 13.8372973,13.5951472 13.8372973,14.4581818 Z M7.94846847,9.01818182 C7.94846847,10.0848538 8.60599943,10.7781802 9.92108108,11.0981818 L9.92108108,7.22909091 C9.30221913,7.277576 8.81874048,7.45211971 8.47063063,7.75272727 C8.12252078,8.05333484 7.94846847,8.4751488 7.94846847,9.01818182 Z M12.7204505,14.4581818 C12.7204505,13.9054518 12.5488155,13.430305 12.2055405,13.0327273 C11.8622656,12.6351495 11.3473608,12.3587887 10.6608108,12.2036364 L10.6608108,16.5236364 C11.2893425,16.4460602 11.7897429,16.2278806 12.162027,15.8690909 C12.5343112,15.5103012 12.7204505,15.0400029 12.7204505,14.4581818 Z" id="$" fill="#FFD049"></path>
                                </g>
                            </g>
                        </g>
                    </g>
                </g>
            </g>
        </g>
    </g>
</svg>