<?xml version="1.0" encoding="UTF-8"?>
<svg width="136px" height="136px" viewBox="0 0 136 136" version="1.1" xmlns="http://www.w3.org/2000/svg" xmlns:xlink="http://www.w3.org/1999/xlink">
    <!-- Generator: Sketch 43.2 (39069) - http://www.bohemiancoding.com/sketch -->
    <title>Group</title>
    <desc>Created with Sketch.</desc>
    <defs></defs>
    <g id="Page-1" stroke="none" stroke-width="1" fill="none" fill-rule="evenodd">
        <g id="Desktop-HD" transform="translate(-305.000000, -1647.000000)">
            <g id="Group-17" transform="translate(221.000000, 1529.000000)">
                <g id="Group-25">
                    <g id="Group-24" transform="translate(0.000000, 90.000000)">
                        <g id="Group" transform="translate(85.000000, 29.000000)">
                            <ellipse id="Oval-6" stroke="#D9D9DB" fill="#F3F3F6" cx="67.0645161" cy="67" rx="67.0645161" ry="67"></ellipse>
                            <path d="M48.5142626,2.64025385 L54.5063525,8.85984487 L58.7587131,8.74670898 L58.05274,6.20338666 L64.1169514,0.0979672992 C64.1169514,0.0979672992 58.2421517,0.475200394 55.6176552,0.943066811 C52.9931587,1.41093323 48.5142626,2.64025385 48.5142626,2.64025385 Z" id="Path-13" stroke="#D9D9DB" fill="#66A5F6" stroke-linecap="round" stroke-linejoin="round"></path>
                            <path d="M96.5490828,6.97394877 L99.3121037,15.2530519 L98.1354978,19.7591227 L105.228186,19.7605856 L106.631452,12.9599945 C106.631452,12.9599945 103.269287,10.6015837 101.617149,9.58373306 C99.9650104,8.56588245 96.5490828,6.97394877 96.5490828,6.97394877 Z" id="Path-14" stroke="#D9D9DB" fill="#F87C8B" stroke-linecap="round" stroke-linejoin="round"></path>
                            <path d="M111.217984,16.8406311 L106.043073,21.7512153 L100.174222,21.5032862 L103.411641,24.5848849 L103.427527,28.3051769 L95.3883208,28.7160697 L94.6684208,34.3348294 L98.0046419,37.273593 L101.133572,37.5486182 L104.998094,31.5700613 L107.901717,31.4154201 L107.943369,28.7712296 L114.428474,28.6518132 L126.433523,35.9141438 C126.433523,35.9141438 122.421071,28.9026907 119.65821,25.353833 C116.895349,21.8049753 111.217984,16.8406311 111.217984,16.8406311 Z" id="Path-15" stroke="#D9D9DB" fill="#FFD049" stroke-linecap="round" stroke-linejoin="round"></path>
                            <path d="M127.948502,39.0177247 L126.615404,38.3180377 L124.703864,43.0918513 L114.60567,40.0875399 L115.556009,35.9985907 L106.677079,36.0836489 L102.037241,39.8766544 L96.7588529,40.281707 L94.2833333,42.3808827 L94.3520325,45.8691456 L91.4020774,47.2573527 L87.5792903,53.106125 L87.5678405,63.8275543 L91.0148371,67.3348819 L94.8417344,75.0241359 L101.352598,75.1200463 L105.187715,71.8725859 L108.331144,72.0661665 L110.634622,75.868851 L114.728095,75.9236989 L115.090674,81.5002852 L116.927937,84.1291677 L116.963755,95.8880127 L115.64702,99.0172716 L120.389785,108.141146 C120.389785,108.141146 133.163935,91.6704925 134.119702,72.0661665 C135.075468,52.4618405 127.948502,39.0177247 127.948502,39.0177247 Z" id="Path-16" stroke="#D9D9DB" fill="#FFFFFF" stroke-linecap="round" stroke-linejoin="round"></path>
                            <path d="M127.948502,39.0177247 L126.615404,38.3180377 L124.703864,43.0918513 L114.60567,40.0875399 L115.556009,35.9985907 L106.677079,36.0836489 L102.037241,39.8766544 L96.7588529,40.281707 L94.2833333,42.3808827 L94.3520325,45.8691456 L91.4020774,47.2573527 L87.5792903,53.106125 L87.5678405,63.8275543 L91.0148371,67.3348819 L94.8417344,75.0241359 L101.352598,75.1200463 L105.187715,71.8725859 L108.331144,72.0661665 L110.634622,75.868851 L114.728095,75.9236989 L115.090674,81.5002852 L116.927937,84.1291677 L116.963755,95.8880127 L115.64702,99.0172716 L120.389785,108.141146 C120.389785,108.141146 133.163935,91.6704925 134.119702,72.0661665 C135.075468,52.4618405 127.948502,39.0177247 127.948502,39.0177247 Z" id="Path-16" stroke="#D9D9DB" fill="#FFFFFF" stroke-linecap="round" stroke-linejoin="round"></path>
                            <path d="M41.0189873,128.742766 L56.2700177,112.445719 L56.2586423,108.733314 L64.0315213,103.249079 L65.0263561,97.0013555 L69.1746033,91.4840599 L69.0132787,85.0007814 L55.3086199,80.9619047 L51.5405885,73.78057 L45.5278017,72.1833403 L40.4815835,66.5551547 L32.4705094,66.5658305 L27.174376,69.1214668 L20.9799267,67.1330226 L21.3232585,61.1659681 L16.0350534,60.9472875 L17.0616015,56.4297241 L13.1929146,56.1648967 L12.0181409,57.9642768 L10.1332634,57.8750827 L6.13841243,54.8986152 L6.30387351,47.4376447 L8.62860171,46.0356779 L12.9478254,46.4768274 L14.671723,45.0741718 L19.7113918,45.0566085 L22.232605,50.1403309 L24.3894591,49.2077526 L23.3532591,42.5812124 L28.7738862,36.8677746 L28.6620969,33.2780867 L30.7325889,32.3162627 L30.6989087,28.3016828 L35.0895079,26.5047508 L37.1549838,28.4435521 L41.1456016,28.3231601 L43.3405429,25.9649553 L40.8768771,23.7963471 L36.7834274,23.4462675 L36.710215,22.5341993 L40.7148064,22.3839777 L43.6435446,19.6535001 L48.1553684,18.5890625 L46.2542325,14.7353235 L42.1734427,12.1927721 L40.0365459,5.70675442 C40.0365459,5.70675442 21.746212,14.5274361 13.1929146,26.5047508 C8.47935201,33.1052253 4.17155535,42.4433457 2.18289413,49.8065647 C0.194232922,57.1697838 0.344329011,60.6099699 0.344329011,60.6099699 C0.344329011,60.6099699 2.35510168,61.1343575 3.41609177,61.1659681 C4.47708186,61.1975788 11.4428313,60.9244701 11.4428313,60.9244701 L16.6958569,64.7630557 L16.7246402,68.0458572 L22.1233741,70.9304938 L25.0229707,71.0747495 L26.0991822,71.604403 L25.9801074,77.2461251 L22.7874221,80.4986198 L22.7229282,87.1589614 L27.2711791,97.7547749 L33.3536674,102.154991 L31.5521387,123.774135 C31.5521387,123.774135 34.7117117,125.639204 36.3706155,126.509871 C38.0295192,127.380539 41.0189873,128.742766 41.0189873,128.742766 Z" id="Path-17" stroke="#D9D9DB" fill="#FFFFFF" stroke-linecap="round" stroke-linejoin="round"></path>
                            <path d="M41.0189873,128.742766 L56.2700177,112.445719 L56.2586423,108.733314 L64.0315213,103.249079 L65.0263561,97.0013555 L69.1746033,91.4840599 L69.0132787,85.0007814 L55.3086199,80.9619047 L51.5405885,73.78057 L45.5278017,72.1833403 L40.4815835,66.5551547 L32.4705094,66.5658305 L27.174376,69.1214668 L20.9799267,67.1330226 L21.3232585,61.1659681 L16.0350534,60.9472875 L17.0616015,56.4297241 L13.1929146,56.1648967 L12.0181409,57.9642768 L10.1332634,57.8750827 L6.13841243,54.8986152 L6.30387351,47.4376447 L8.62860171,46.0356779 L12.9478254,46.4768274 L14.671723,45.0741718 L19.7113918,45.0566085 L22.232605,50.1403309 L24.3894591,49.2077526 L23.3532591,42.5812124 L28.7738862,36.8677746 L28.6620969,33.2780867 L30.7325889,32.3162627 L30.6989087,28.3016828 L35.0895079,26.5047508 L37.1549838,28.4435521 L41.1456016,28.3231601 L43.3405429,25.9649553 L40.8768771,23.7963471 L36.7834274,23.4462675 L36.710215,22.5341993 L40.7148064,22.3839777 L43.6435446,19.6535001 L48.1553684,18.5890625 L46.2542325,14.7353235 L42.1734427,12.1927721 L40.0365459,5.70675442 C40.0365459,5.70675442 21.746212,14.5274361 13.1929146,26.5047508 C8.47935201,33.1052253 4.17155535,42.4433457 2.18289413,49.8065647 C0.194232922,57.1697838 0.344329011,60.6099699 0.344329011,60.6099699 C0.344329011,60.6099699 2.35510168,61.1343575 3.41609177,61.1659681 C4.47708186,61.1975788 11.4428313,60.9244701 11.4428313,60.9244701 L16.6958569,64.7630557 L16.7246402,68.0458572 L22.1233741,70.9304938 L25.0229707,71.0747495 L26.0991822,71.604403 L25.9801074,77.2461251 L22.7874221,80.4986198 L22.7229282,87.1589614 L27.2711791,97.7547749 L33.3536674,102.154991 L31.5521387,123.774135 C31.5521387,123.774135 34.7117117,125.639204 36.3706155,126.509871 C38.0295192,127.380539 41.0189873,128.742766 41.0189873,128.742766 Z" id="Path-17" stroke="#D9D9DB" fill="#FFFFFF" stroke-linecap="round" stroke-linejoin="round"></path>
                            <path d="M41.0189873,128.742766 L56.2700177,112.445719 L56.2586423,108.733314 L64.0315213,103.249079 L65.0263561,97.0013555 L69.1746033,91.4840599 L69.0132787,85.0007814 L55.3086199,80.9619047 L51.5405885,73.78057 L45.5278017,72.1833403 L40.4815835,66.5551547 L32.4705094,66.5658305 L27.174376,69.1214668 L20.9799267,67.1330226 L21.3232585,61.1659681 L16.0350534,60.9472875 L17.0616015,56.4297241 L13.1929146,56.1648967 L12.0181409,57.9642768 L10.1332634,57.8750827 L6.13841243,54.8986152 L6.30387351,47.4376447 L8.62860171,46.0356779 L12.9478254,46.4768274 L14.671723,45.0741718 L19.7113918,45.0566085 L22.232605,50.1403309 L24.3894591,49.2077526 L23.3532591,42.5812124 L28.7738862,36.8677746 L28.6620969,33.2780867 L30.7325889,32.3162627 L30.6989087,28.3016828 L35.0895079,26.5047508 L37.1549838,28.4435521 L41.1456016,28.3231601 L43.3405429,25.9649553 L40.8768771,23.7963471 L36.7834274,23.4462675 L36.710215,22.5341993 L40.7148064,22.3839777 L43.6435446,19.6535001 L48.1553684,18.5890625 L46.2542325,14.7353235 L42.1734427,12.1927721 L40.0365459,5.70675442 C40.0365459,5.70675442 21.746212,14.5274361 13.1929146,26.5047508 C8.47935201,33.1052253 4.17155535,42.4433457 2.18289413,49.8065647 C0.194232922,57.1697838 0.344329011,60.6099699 0.344329011,60.6099699 C0.344329011,60.6099699 2.35510168,61.1343575 3.41609177,61.1659681 C4.47708186,61.1975788 11.4428313,60.9244701 11.4428313,60.9244701 L16.6958569,64.7630557 L16.7246402,68.0458572 L22.1233741,70.9304938 L25.0229707,71.0747495 L26.0991822,71.604403 L25.9801074,77.2461251 L22.7874221,80.4986198 L22.7229282,87.1589614 L27.2711791,97.7547749 L33.3536674,102.154991 L31.5521387,123.774135 C31.5521387,123.774135 34.7117117,125.639204 36.3706155,126.509871 C38.0295192,127.380539 41.0189873,128.742766 41.0189873,128.742766 Z" id="Path-17" stroke="#D9D9DB" fill="#FFFFFF" stroke-linecap="round" stroke-linejoin="round"></path>
                            <path d="M41.0189873,128.742766 L56.2700177,112.445719 L56.2586423,108.733314 L64.0315213,103.249079 L65.0263561,97.0013555 L69.1746033,91.4840599 L69.0132787,85.0007814 L55.3086199,80.9619047 L51.5405885,73.78057 L45.5278017,72.1833403 L40.4815835,66.5551547 L32.4705094,66.5658305 L27.174376,69.1214668 L20.9799267,67.1330226 L21.3232585,61.1659681 L16.0350534,60.9472875 L17.0616015,56.4297241 L13.1929146,56.1648967 L12.0181409,57.9642768 L10.1332634,57.8750827 L6.13841243,54.8986152 L6.30387351,47.4376447 L8.62860171,46.0356779 L12.9478254,46.4768274 L14.671723,45.0741718 L19.7113918,45.0566085 L22.232605,50.1403309 L24.3894591,49.2077526 L23.3532591,42.5812124 L28.7738862,36.8677746 L28.6620969,33.2780867 L30.7325889,32.3162627 L30.6989087,28.3016828 L35.0895079,26.5047508 L37.1549838,28.4435521 L41.1456016,28.3231601 L43.3405429,25.9649553 L40.8768771,23.7963471 L36.7834274,23.4462675 L36.710215,22.5341993 L40.7148064,22.3839777 L43.6435446,19.6535001 L48.1553684,18.5890625 L46.2542325,14.7353235 L42.1734427,12.1927721 L40.0365459,5.70675442 C40.0365459,5.70675442 21.746212,14.5274361 13.1929146,26.5047508 C8.47935201,33.1052253 4.17155535,42.4433457 2.18289413,49.8065647 C0.194232922,57.1697838 0.344329011,60.6099699 0.344329011,60.6099699 C0.344329011,60.6099699 2.35510168,61.1343575 3.41609177,61.1659681 C4.47708186,61.1975788 11.4428313,60.9244701 11.4428313,60.9244701 L16.6958569,64.7630557 L16.7246402,68.0458572 L22.1233741,70.9304938 L25.0229707,71.0747495 L26.0991822,71.604403 L25.9801074,77.2461251 L22.7874221,80.4986198 L22.7229282,87.1589614 L27.2711791,97.7547749 L33.3536674,102.154991 L31.5521387,123.774135 C31.5521387,123.774135 34.7117117,125.639204 36.3706155,126.509871 C38.0295192,127.380539 41.0189873,128.742766 41.0189873,128.742766 Z" id="Path-17" stroke="#D9D9DB" fill="#FFFFFF" stroke-linecap="round" stroke-linejoin="round"></path>
                            <path d="M41.0189873,128.742766 L56.2700177,112.445719 L56.2586423,108.733314 L64.0315213,103.249079 L65.0263561,97.0013555 L69.1746033,91.4840599 L69.0132787,85.0007814 L55.3086199,80.9619047 L51.5405885,73.78057 L45.5278017,72.1833403 L40.4815835,66.5551547 L32.4705094,66.5658305 L27.174376,69.1214668 L20.9799267,67.1330226 L21.3232585,61.1659681 L16.0350534,60.9472875 L17.0616015,56.4297241 L13.1929146,56.1648967 L12.0181409,57.9642768 L10.1332634,57.8750827 L6.13841243,54.8986152 L6.30387351,47.4376447 L8.62860171,46.0356779 L12.9478254,46.4768274 L14.671723,45.0741718 L19.7113918,45.0566085 L22.232605,50.1403309 L24.3894591,49.2077526 L23.3532591,42.5812124 L28.7738862,36.8677746 L28.6620969,33.2780867 L30.7325889,32.3162627 L30.6989087,28.3016828 L35.0895079,26.5047508 L37.1549838,28.4435521 L41.1456016,28.3231601 L43.3405429,25.9649553 L40.8768771,23.7963471 L36.7834274,23.4462675 L36.710215,22.5341993 L40.7148064,22.3839777 L43.6435446,19.6535001 L48.1553684,18.5890625 L46.2542325,14.7353235 L42.1734427,12.1927721 L40.0365459,5.70675442 C40.0365459,5.70675442 21.746212,14.5274361 13.1929146,26.5047508 C8.47935201,33.1052253 4.17155535,42.4433457 2.18289413,49.8065647 C0.194232922,57.1697838 0.344329011,60.6099699 0.344329011,60.6099699 C0.344329011,60.6099699 2.35510168,61.1343575 3.41609177,61.1659681 C4.47708186,61.1975788 11.4428313,60.9244701 11.4428313,60.9244701 L16.6958569,64.7630557 L16.7246402,68.0458572 L22.1233741,70.9304938 L25.0229707,71.0747495 L26.0991822,71.604403 L25.9801074,77.2461251 L22.7874221,80.4986198 L22.7229282,87.1589614 L27.2711791,97.7547749 L33.3536674,102.154991 L31.5521387,123.774135 C31.5521387,123.774135 34.7117117,125.639204 36.3706155,126.509871 C38.0295192,127.380539 41.0189873,128.742766 41.0189873,128.742766 Z" id="Path-17" stroke="#D9D9DB" fill="#FFFFFF" stroke-linecap="round" stroke-linejoin="round"></path>
                            <path d="M10.8870968,59.6038961 L10.8870968,59.6038961" id="Path-10" stroke="#F87C8B" stroke-linecap="round" stroke-linejoin="round"></path>
                            <path d="M21.3387097,69.1753247 L21.3387097,69.1753247" id="Path-10" stroke="#F87C8B" stroke-linecap="round" stroke-linejoin="round"></path>
                            <path d="M23.0806452,69.1753247 L23.0806452,69.1753247" id="Path-10" stroke="#F87C8B" stroke-linecap="round" stroke-linejoin="round"></path>
                            <path d="M24.8225806,70.0454545 L24.8225806,70.0454545" id="Path-10" stroke="#F87C8B" stroke-linecap="round" stroke-linejoin="round"></path>
                            <path d="M26.5645161,70.9155844 L26.5645161,70.9155844" id="Path-10" stroke="#F87C8B" stroke-linecap="round" stroke-linejoin="round"></path>
                            <path d="M17.8548387,64.8246753 L19.5967742,63.0844156" id="Path-10" stroke="#F87C8B" stroke-linecap="round" stroke-linejoin="round"></path>
                            <path d="M27.4354839,72.6558442 L30.0483871,69.1753247" id="Path-10" stroke="#FFD049" stroke-linecap="round" stroke-linejoin="round"></path>
                            <path d="M27.4354839,76.1363636 L33.5322581,68.3051948" id="Path-10" stroke="#FFD049" stroke-linecap="round" stroke-linejoin="round"></path>
                            <path d="M24.8225806,83.0974026 L37.016129,68.3051948" id="Path-10" stroke="#FFD049" stroke-linecap="round" stroke-linejoin="round"></path>
                            <path d="M24.8225806,86.5779221 L39.6290323,69.1753247" id="Path-10" stroke="#FFD049" stroke-linecap="round" stroke-linejoin="round"></path>
                            <path d="M25.6935484,89.1883117 L41.3709677,70.9155844" id="Path-10" stroke="#FFD049" stroke-linecap="round" stroke-linejoin="round"></path>
                            <path d="M26.5645161,91.7987013 L43.1129032,72.6558442" id="Path-10" stroke="#FFD049" stroke-linecap="round" stroke-linejoin="round"></path>
                            <path d="M27.4354839,94.4090909 L44.8548387,74.3961039" id="Path-10" stroke="#FFD049" stroke-linecap="round" stroke-linejoin="round"></path>
                            <path d="M29.1774194,96.1493506 L47.4677419,75.2662338" id="Path-10" stroke="#FFD049" stroke-linecap="round" stroke-linejoin="round"></path>
                            <path d="M30.9193548,97.8896104 L50.0806452,76.1363636" id="Path-10" stroke="#FFD049" stroke-linecap="round" stroke-linejoin="round"></path>
                            <path d="M32.6612903,99.6298701 L51.8225806,77.8766234" id="Path-10" stroke="#FFD049" stroke-linecap="round" stroke-linejoin="round"></path>
                            <path d="M34.4032258,101.37013 L52.6935484,80.487013" id="Path-10" stroke="#FFD049" stroke-linecap="round" stroke-linejoin="round"></path>
                            <path d="M34.4032258,104.850649 L54.4354839,82.2272727" id="Path-10" stroke="#FFD049" stroke-linecap="round" stroke-linejoin="round"></path>
                            <path d="M34.4032258,108.331169 L57.0483871,83.0974026" id="Path-10" stroke="#FFD049" stroke-linecap="round" stroke-linejoin="round"></path>
                            <path d="M34.4032258,111.811688 L59.6612903,83.9675325" id="Path-10" stroke="#FFD049" stroke-linecap="round" stroke-linejoin="round"></path>
                            <path d="M33.5322581,116.162338 L62.2741935,84.8376623" id="Path-10" stroke="#FFD049" stroke-linecap="round" stroke-linejoin="round"></path>
                            <path d="M33.5322581,119.642857 L64.8870968,85.7077922" id="Path-10" stroke="#FFD049" stroke-linecap="round" stroke-linejoin="round"></path>
                            <path d="M33.5322581,123.123377 L67.5,86.5779221" id="Path-10" stroke="#FFD049" stroke-linecap="round" stroke-linejoin="round"></path>
                            <path d="M36.1451613,123.993506 L67.5,90.0584416" id="Path-10" stroke="#FFD049" stroke-linecap="round" stroke-linejoin="round"></path>
                            <path d="M38.7580645,124.863636 L63.1451613,98.7597403" id="Path-10" stroke="#FFD049" stroke-linecap="round" stroke-linejoin="round"></path>
                            <path d="M38.7580645,124.863636 L63.1451613,98.7597403" id="Path-10" stroke="#FFD049" stroke-linecap="round" stroke-linejoin="round"></path>
                            <path d="M89.2741935,56.1233766 L107.564516,37.8506494" id="Path-10" stroke="#66A5F6" stroke-linecap="round" stroke-linejoin="round"></path>
                            <path d="M89.2741935,59.6038961 L111.048387,37.8506494" id="Path-10" stroke="#66A5F6" stroke-linecap="round" stroke-linejoin="round"></path>
                            <path d="M89.2741935,63.0844156 L112.790323,39.5909091" id="Path-10" stroke="#66A5F6" stroke-linecap="round" stroke-linejoin="round"></path>
                            <path d="M91.016129,64.8246753 L113.66129,42.2012987" id="Path-10" stroke="#66A5F6" stroke-linecap="round" stroke-linejoin="round"></path>
                            <path d="M92.7580645,66.5649351 L116.274194,43.0714286" id="Path-10" stroke="#66A5F6" stroke-linecap="round" stroke-linejoin="round"></path>
                            <path d="M93.6290323,69.1753247 L118.887097,43.9415584" id="Path-10" stroke="#66A5F6" stroke-linecap="round" stroke-linejoin="round"></path>
                            <path d="M95.3709677,70.9155844 L121.5,44.8116883" id="Path-10" stroke="#66A5F6" stroke-linecap="round" stroke-linejoin="round"></path>
                            <path d="M97.1129032,72.6558442 L127.596774,42.2012987" id="Path-10" stroke="#66A5F6" stroke-linecap="round" stroke-linejoin="round"></path>
                            <path d="M99.7258065,73.525974 L128.226737,45.1358178" id="Path-10" stroke="#66A5F6" stroke-linecap="round" stroke-linejoin="round"></path>
                            <path d="M106.693548,70.0454545 L129.33871,47.4220779" id="Path-10" stroke="#66A5F6" stroke-linecap="round" stroke-linejoin="round"></path>
                            <path d="M109.306452,70.9155844 L130.209677,50.0324675" id="Path-10" stroke="#66A5F6" stroke-linecap="round" stroke-linejoin="round"></path>
                            <path d="M111.048387,72.6558442 L131.080645,52.6428571" id="Path-10" stroke="#66A5F6" stroke-linecap="round" stroke-linejoin="round"></path>
                            <path d="M112.790323,74.3961039 L131.080645,56.1233766" id="Path-10" stroke="#66A5F6" stroke-linecap="round" stroke-linejoin="round"></path>
                            <path d="M116.274194,74.3961039 L131.951613,58.7337662" id="Path-10" stroke="#66A5F6" stroke-linecap="round" stroke-linejoin="round"></path>
                            <path d="M116.274194,77.8766234 L131.951613,62.2142857" id="Path-10" stroke="#66A5F6" stroke-linecap="round" stroke-linejoin="round"></path>
                            <path d="M117.145161,80.487013 L131.951613,65.6948052" id="Path-10" stroke="#66A5F6" stroke-linecap="round" stroke-linejoin="round"></path>
                            <path d="M118.887097,82.2272727 L131.951613,69.1753247" id="Path-10" stroke="#66A5F6" stroke-linecap="round" stroke-linejoin="round"></path>
                            <path d="M119.758065,84.8376623 L132.485554,72.1463213" id="Path-10" stroke="#66A5F6" stroke-linecap="round" stroke-linejoin="round"></path>
                            <path d="M119.758065,88.3181818 L131.951613,76.1363636" id="Path-10" stroke="#66A5F6" stroke-linecap="round" stroke-linejoin="round"></path>
                            <path d="M118.887097,92.6688312 L131.080645,80.487013" id="Path-10" stroke="#66A5F6" stroke-linecap="round" stroke-linejoin="round"></path>
                            <path d="M118.887097,96.1493506 L130.209677,84.8376623" id="Path-10" stroke="#66A5F6" stroke-linecap="round" stroke-linejoin="round"></path>
                            <path d="M118.887097,99.6298701 L129.33871,89.1883117" id="Path-10" stroke="#66A5F6" stroke-linecap="round" stroke-linejoin="round"></path>
                            <path d="M119.758065,102.24026 L126.725806,95.2792208" id="Path-10" stroke="#66A5F6" stroke-linecap="round" stroke-linejoin="round"></path>
                            <path d="M120.629032,104.850649 L122.370968,103.11039" id="Path-10" stroke="#66A5F6" stroke-linecap="round" stroke-linejoin="round"></path>
                            <path d="M90.1451613,51.7727273 L100.596774,41.3311688" id="Path-10" stroke="#66A5F6" stroke-linecap="round" stroke-linejoin="round"></path>
                            <path d="M40.5,126.603896 L54.4354839,111.811688" id="Path-10" stroke="#FFD049" stroke-linecap="round" stroke-linejoin="round"></path>
                            <g id="Group-3" transform="translate(2.612903, 8.701299)" stroke="#F87C8B" stroke-linecap="round" stroke-linejoin="round">
                                <path d="M6.09677419,31.1564935 L18.1386,12.9527097" id="Path-10"></path>
                                <path d="M6.09677419,35.6063813 L23.9516129,8.26623377" id="Path-10"></path>
                                <path d="M8.70967742,35.6063813 L29.1774194,4.78571429" id="Path-10"></path>
                                <path d="M12.1935484,34.7362514 L34.4032258,1.30519481" id="Path-10"></path>
                                <path d="M15.2419355,34.3701299 L37.8870968,0.435064935" id="Path-10"></path>
                                <path d="M17.8548387,34.3701299 L27.4354839,20.4480519" id="Path-10"></path>
                                <path d="M23.9516129,29.1493506 L25.6935484,26.538961" id="Path-10"></path>
                                <path d="M3.0483871,50.9025974 L4.79032258,48.2922078" id="Path-10"></path>
                                <path d="M5.66129032,50.9025974 L6.53225806,50.0324675" id="Path-10"></path>
                                <path d="M12.6290323,51.7727273 L13.5,50.9025974" id="Path-10"></path>
                                <path d="M12.6290323,51.7727273 L13.5,50.9025974" id="Path-10"></path>
                                <path d="M15.2419355,54.3831169 L16.1129032,53.512987" id="Path-10"></path>
                                <path d="M16.983871,57.8636364 L17.8548387,56.9935065" id="Path-10"></path>
                                <path d="M17.8548387,59.6038961 L17.8548387,59.6038961" id="Path-10"></path>
                                <path d="M10.016129,50.9025974 L11.7580645,49.1623377" id="Path-10"></path>
                                <path d="M34.4032258,16.9675325 L35.2741935,16.0974026" id="Path-10"></path>
                                <path d="M36.1451613,17.8376623 L37.8870968,16.9675325" id="Path-10"></path>
                                <path d="M31.7903226,16.0974026 L32.6612903,15.2272727" id="Path-10"></path>
                                <path d="M35.2741935,11.7467532 L39.6290323,5.65584416" id="Path-10"></path>
                                <path d="M0.435483871,45.6818182 L3.0483871,36.9805195" id="Path-10"></path>
                                <path d="M0.435483871,50.0324675 L2.17741935,45.6818182" id="Path-10"></path>
                                <path d="M37.8870968,11.7467532 L41.3709677,6.52597403" id="Path-10"></path>
                                <path d="M42.2419355,9.13636364 L43.1129032,8.26623377" id="Path-10"></path>
                                <path d="M18.7258065,35.2402597 L18.7258065,35.2402597" id="Path-10"></path>
                                <path d="M28.3064516,17.8376623 L37.8870968,3.91558442" id="Path-10"></path>
                            </g>
                        </g>
                    </g>
                </g>
            </g>
        </g>
    </g>
</svg>